<?xml version="1.0" encoding="UTF-8"?>
<svg id="Layer_2" xmlns="http://www.w3.org/2000/svg" version="1.1" viewBox="0 0 1000 1000">
  <!-- Generator: Adobe Illustrator 30.0.0, SVG Export Plug-In . SVG Version: 2.1.1 Build 123)  -->
  <path d="M566,888c-8.3,0-15-6.7-15-15s6.7-15,15-15,15,6.7,15,15-6.7,15-15,15ZM566,861.8c-6.2,0-11.2,5-11.2,11.2s5,11.2,11.2,11.2,11.2-5,11.2-11.2-5-11.2-11.2-11.2Z" fill="#414141"/>
  <path d="M345.5,744c-6.9,0-12.5-5.6-12.5-12.5s5.6-12.5,12.5-12.5,12.5,5.6,12.5,12.5-5.6,12.5-12.5,12.5ZM345.5,722.8c-4.8,0-8.8,3.9-8.8,8.8s3.9,8.8,8.8,8.8,8.8-3.9,8.8-8.8-3.9-8.8-8.8-8.8Z" fill="#414141"/>
  <path d="M754.5,795c-6.9,0-12.5-5.6-12.5-12.5s5.6-12.5,12.5-12.5,12.5,5.6,12.5,12.5-5.6,12.5-12.5,12.5ZM754.5,773.8c-4.8,0-8.8,3.9-8.8,8.8s3.9,8.8,8.8,8.8,8.8-3.9,8.8-8.8-3.9-8.8-8.8-8.8Z" fill="#414141"/>
  <path d="M624,404c-13.8,0-25-11.2-25-25s11.2-25,25-25,25,11.2,25,25-11.2,25-25,25ZM624,357.8c-11.7,0-21.2,9.5-21.2,21.2s9.5,21.2,21.2,21.2,21.2-9.5,21.2-21.2-9.5-21.2-21.2-21.2Z" fill="#414141"/>
  <path d="M271,235c-13.8,0-25-11.2-25-25s11.2-25,25-25,25,11.2,25,25-11.2,25-25,25ZM271,188.8c-11.7,0-21.2,9.5-21.2,21.2s9.5,21.2,21.2,21.2,21.2-9.5,21.2-21.2-9.5-21.2-21.2-21.2Z" fill="#414141"/>
  <path d="M671,644c-13.8,0-25-11.2-25-25s11.2-25,25-25,25,11.2,25,25-11.2,25-25,25ZM671,597.8c-11.7,0-21.2,9.5-21.2,21.2s9.5,21.2,21.2,21.2,21.2-9.5,21.2-21.2-9.5-21.2-21.2-21.2Z" fill="#414141"/>
  <path d="M268,634c-11,0-20-9-20-20s9-20,20-20,20,9,20,20-9,20-20,20ZM268,597.8c-9,0-16.2,7.3-16.2,16.2s7.3,16.2,16.2,16.2,16.2-7.3,16.2-16.2-7.3-16.2-16.2-16.2Z" fill="#414141"/>
  <path d="M686.5,384c-6.9,0-12.5-5.6-12.5-12.5s5.6-12.5,12.5-12.5,12.5,5.6,12.5,12.5-5.6,12.5-12.5,12.5ZM686.5,362.8c-4.8,0-8.8,3.9-8.8,8.8s3.9,8.8,8.8,8.8,8.8-3.9,8.8-8.8-3.9-8.8-8.8-8.8Z" fill="#414141"/>
  <path d="M461.5,619c-6.9,0-12.5-5.6-12.5-12.5s5.6-12.5,12.5-12.5,12.5,5.6,12.5,12.5-5.6,12.5-12.5,12.5ZM461.5,597.8c-4.8,0-8.8,3.9-8.8,8.8s3.9,8.8,8.8,8.8,8.8-3.9,8.8-8.8-3.9-8.8-8.8-8.8Z" fill="#414141"/>
  <path d="M378.5,874c-6.9,0-12.5-5.6-12.5-12.5s5.6-12.5,12.5-12.5,12.5,5.6,12.5,12.5-5.6,12.5-12.5,12.5ZM378.5,852.8c-4.8,0-8.8,3.9-8.8,8.8s3.9,8.8,8.8,8.8,8.8-3.9,8.8-8.8-3.9-8.8-8.8-8.8Z" fill="#414141"/>
  <path d="M631.5,153c-6.9,0-12.5-5.6-12.5-12.5s5.6-12.5,12.5-12.5,12.5,5.6,12.5,12.5-5.6,12.5-12.5,12.5ZM631.5,131.8c-4.8,0-8.8,3.9-8.8,8.8s3.9,8.8,8.8,8.8,8.8-3.9,8.8-8.8-3.9-8.8-8.8-8.8Z" fill="#414141"/>
  <path d="M608.2,658.4c-.7-.7-1.9-.7-2.7,0-3.4,3.4-9,3.4-12.4,0-3.4-3.4-3.4-9,0-12.4.7-.7.7-1.9,0-2.7l-21.3-21.3c1.6-2.1,2.4-4.7,2.4-7.4s-1.3-6.5-3.6-8.8c-4.3-4.3-11.5-4.7-16.2-1.2l-10-10c-.7-.7-1.9-.7-2.7,0l-11.3,11.3c-.7.7-.7,1.9,0,2.7,3.4,3.4,3.4,9,0,12.4-3.4,3.4-9,3.4-12.4,0-.7-.7-1.9-.7-2.7,0l-21.3,21.3c-4.9-3.6-11.8-3.2-16.2,1.2-4.4,4.4-4.8,11.4-1.2,16.2l-10,10c-.7.7-.7,1.9,0,2.7l11.3,11.3c.7.7,1.9.7,2.7,0,3.4-3.4,9-3.4,12.4,0,3.4,3.4,3.4,9,0,12.4-.7.7-.7,1.9,0,2.7l21.3,21.3c-1.6,2.1-2.4,4.7-2.4,7.4s1.3,6.5,3.6,8.8c4.3,4.3,11.5,4.7,16.2,1.2l10,10c.4.4.8.6,1.3.6s1-.2,1.3-.6l11.3-11.3c.7-.7.7-1.9,0-2.7-3.4-3.4-3.4-9,0-12.4s9-3.4,12.4,0c.7.7,1.9.7,2.7,0l21.3-21.3c4.9,3.6,11.8,3.2,16.2-1.2,4.4-4.4,4.8-11.4,1.2-16.2l10-10c.7-.7.7-1.9,0-2.7l-11.3-11.3ZM516.8,624.7c4.8,3.5,12,3,16.2-1.2,4.4-4.4,4.8-11.4,1.2-16.3l8.7-8.7,9.9,9.9c.7.7,1.9.7,2.7,0,3.4-3.4,9-3.4,12.4,0,1.6,1.6,2.5,3.8,2.5,6.2s-.9,4.5-2.5,6.2-.7,1.9,0,2.7l9.9,9.9-8.7,8.7c-4.9-3.6-11.8-3.2-16.2,1.2-4.4,4.4-4.8,11.4-1.2,16.2l-8.7,8.7-9.9-9.9c-.7-.7-1.9-.7-2.7,0-3.4,3.4-9,3.4-12.4,0s-3.4-9,0-12.4c.7-.7.7-1.9,0-2.7l-9.9-9.9,8.7-8.7ZM496.7,697.2c3.6-4.9,3.2-11.8-1.2-16.2-4.4-4.4-11.4-4.8-16.2-1.2l-8.7-8.7,9.9-9.9c.7-.7.7-1.9,0-2.7-3.4-3.4-3.4-9,0-12.4,3.4-3.4,9-3.4,12.4,0,.7.7,1.9.7,2.7,0l9.9-9.9,8.7,8.7c-3.6,4.9-3.2,11.8,1.2,16.3,4.4,4.4,11.4,4.8,16.2,1.2l8.7,8.7-9.9,9.9c-.7.7-.7,1.9,0,2.7,3.4,3.4,3.4,9,0,12.4s-9,3.4-12.4,0c-.7-.7-1.9-.7-2.7,0l-9.9,9.9-8.7-8.7ZM569.2,717.3c-4.8-3.5-12-3-16.2,1.2-4.4,4.4-4.8,11.4-1.2,16.2l-8.7,8.7-9.9-9.9c-.7-.7-1.9-.7-2.7,0-3.4,3.4-9,3.4-12.4,0-1.6-1.6-2.5-3.8-2.5-6.2s.9-4.5,2.5-6.2.7-1.9,0-2.7l-9.9-9.9,8.7-8.7c4.9,3.6,11.8,3.2,16.2-1.2,4.4-4.4,4.8-11.4,1.2-16.2l8.7-8.7,9.9,9.9c.7.7,1.9.7,2.7,0,3.4-3.4,9-3.4,12.4,0s3.4,9,0,12.4c-.7.7-.7,1.9,0,2.7l9.9,9.9-8.7,8.7ZM605.5,680.9c-.7.7-.7,1.9,0,2.7,3.4,3.4,3.4,9,0,12.4-3.4,3.4-9,3.4-12.4,0s-1.9-.7-2.7,0l-9.9,9.9-8.7-8.7c3.6-4.9,3.2-11.8-1.2-16.2-4.4-4.4-11.4-4.8-16.2-1.2l-8.7-8.7,9.9-9.9c.7-.7.7-1.9,0-2.7-3.4-3.4-3.4-9,0-12.4,3.4-3.4,9-3.4,12.4,0,.7.7,1.9.7,2.7,0l9.9-9.9,8.7,8.7c-3.6,4.9-3.2,11.8,1.2,16.3,4.4,4.4,11.4,4.8,16.2,1.2l8.7,8.7-9.9,9.9Z" fill="#414141"/>
  <g>
    <path d="M351.3,290c-22.5.4-41.4,18.9-42.2,41.3-.5,14.8,6.5,28.7,18.9,37,2.9,1.9,4.6,5,4.6,8.4s1.1,3.4,2.6,4.3v13.7c0,5.2,4.2,9.4,9.4,9.4h15c5.2,0,9.4-4.2,9.4-9.4v-13.7c1.5-.8,2.6-2.4,2.6-4.4,0-3.3,1.7-6.3,4.5-8.2,11.9-8,19-21.2,19-35.5s-4.6-22.4-12.8-30.5c-8.3-8.1-19.3-12.6-30.9-12.3ZM365.2,392.8h-9.4c-1,0-1.9.8-1.9,1.9s.8,1.9,1.9,1.9h9.1c-.8,2.2-2.8,3.7-5.3,3.7h-15c-3.1,0-5.6-2.5-5.6-5.6v-5.6h9.4c1,0,1.9-.8,1.9-1.9s-.8-1.9-1.9-1.9h-9.4v-3.7h26.3v11.2ZM347.4,367.8c0-2.5,2-4.5,4.6-4.5s4.5,2,4.5,4.5v10h-9.1v-10ZM328.6,329.5c6.5-7.1,14.7-11.1,23.2-11.1h.1c8.6,0,16.9,3.9,23.5,11.1l-20.5,30.6c-.9-.4-2-.6-3-.6s-2,.2-2.9.5l-20.5-30.6ZM373.9,365.2c-3.9,2.6-6.2,6.8-6.2,11.4s-.5,1.1-1.1,1.1h-6.3v-10c0-2.2-.8-4.1-2.2-5.6l21.3-31.8c.5-.7.4-1.6-.1-2.3-7.5-8.7-17.2-13.5-27.3-13.5h-.1c-10.1,0-19.7,4.8-27,13.5-.5.6-.6,1.6-.1,2.2l21.3,31.8c-1.4,1.5-2.2,3.4-2.2,5.6v10h-6.3c-.6,0-1.1-.5-1.1-1.2,0-4.5-2.3-8.8-6.2-11.4-11.3-7.6-17.7-20.2-17.3-33.8.7-20.4,18-37.3,38.5-37.6.2,0,.4,0,.7,0,10.4,0,20.1,4,27.5,11.2,7.6,7.4,11.7,17.3,11.7,27.9s-6.5,25.1-17.3,32.4Z" fill="#414141"/>
    <path d="M335.3,301.8c-7,3.8-12.6,9.9-15.8,17.2-.4.9,0,2,1,2.5.2.1.5.2.8.2.7,0,1.4-.4,1.7-1.1,2.8-6.5,7.9-11.9,14.2-15.4.9-.5,1.2-1.6.8-2.5-.5-.9-1.6-1.2-2.6-.8Z" fill="#414141"/>
    <path d="M351.4,297.5c-3,0-5.9.5-8.8,1.3-1,.3-1.6,1.3-1.3,2.3.2.8,1,1.4,1.8,1.4s.3,0,.5,0c2.6-.7,5.2-1.1,7.8-1.1,1,0,1.9-.9,1.8-1.9,0-1-.8-1.8-1.9-1.8Z" fill="#414141"/>
  </g>
  <g>
    <path d="M812.6,623.5c-6.6,6.6-6.6,17.3,0,23.9,6.6,6.6,17.3,6.6,23.9,0,6.6-6.6,6.6-17.3,0-23.9-6.6-6.6-17.3-6.6-23.9,0ZM833.9,644.7c-5.1,5.1-13.5,5.1-18.6,0-5.1-5.1-5.1-13.5,0-18.6,5.1-5.1,13.5-5.1,18.6,0,5.1,5.1,5.1,13.5,0,18.6Z" fill="#414141"/>
    <path d="M736.3,702.6c-1-1-3-.6-3.2,1.1l-2.6,23.7c0,.6.1,1.1.5,1.5s1,.6,1.5.5l23.7-2.6c1.7-.2,2.1-2.2,1.1-3.2l-21.1-21.1ZM734.5,725.5l1.9-17.5,15.6,15.6-17.5,1.9Z" fill="#414141"/>
    <path d="M865.4,594.6c-.7-.7-1.9-.7-2.7,0l-7.1,7.1c-6-1.7-33.9-8.3-53.5,11.3l-25.8,25.8h-41.4c-.5,0-1,.2-1.3.6l-21.1,21.1c-1,1-.6,2.7.7,3.1l28.7,9.6-3.1,3.1c-.7.7-.7,1.9,0,2.7l4.5,4.5-4.9,14.7c-.2.7,0,1.4.5,1.9l21.1,21.1c.5.5,1.2.7,1.9.5l14.7-4.9,4.4,4.4c.7.7,1.9.7,2.7,0l3.1-3.1,9.6,28.7c.4,1.3,2.1,1.7,3.1.7l21.1-21.1c.4-.4.6-.8.6-1.3v-41.4l25.8-25.8c19.6-19.7,13.1-47.5,11.3-53.5l7.1-7.1c.7-.7.7-1.9,0-2.7ZM854.7,605.3c.5,1.8,1.5,6,2,11.5-3.5.1-7-1.2-9.7-3.8s-3.9-6.2-3.8-9.7c5.5.5,9.7,1.5,11.5,2ZM717.4,660.9l18.4-18.4h36.9l-27.6,27.6-27.6-9.2ZM761.8,717.6l-19.4-19.4,3.9-11.8,27.3,27.3-11.8,3.9ZM817.4,724.3l-18.4,18.4-9.2-27.6,27.6-27.6v36.9ZM844.3,655.2l-61.9,61.9-7.9-7.9,14.5-14.5c.7-.7.7-1.9,0-2.7-.7-.7-1.9-.7-2.7,0l-14.5,14.5-18.4-18.4,14.5-14.5c.7-.7.7-1.9,0-2.7-.7-.7-1.9-.7-2.7,0l-14.5,14.5-7.9-7.9,61.9-61.9c10.6-10.6,24.2-12.8,34.6-12.6-.2,4.5,1.5,9.1,4.9,12.6,3.5,3.5,8,5.1,12.6,4.9.3,10.4-1.9,24-12.6,34.6Z" fill="#414141"/>
  </g>
  <g>
    <path d="M395.5,183.9c-.7-.7-1.9-.7-2.7,0-3.6,3.6-3.7,9.6,0,13.3,3.7,3.7,9.7,3.6,13.3,0s.7-1.9,0-2.7c-.7-.7-1.9-.7-2.7,0-2.1,2.1-5.9,2.1-8,0-2.1-2.1-2.1-5.8,0-8s.7-1.9,0-2.7Z" fill="#414141"/>
    <path d="M399.5,260c38.3,0,69.5-31.2,69.5-69.5s-5.3-30.9-15.2-43.3c-.6-.8-1.8-.9-2.6-.3-.8.6-.9,1.8-.3,2.6,9.4,11.8,14.4,26,14.4,41,0,36.2-29.5,65.7-65.7,65.7s-65.7-29.5-65.7-65.7,29.5-65.7,65.7-65.7,29.2,5,41,14.4c.8.6,2,.5,2.6-.3.6-.8.5-2-.3-2.6-12.5-10-27.4-15.2-43.3-15.2-38.3,0-69.5,31.2-69.5,69.5s31.2,69.5,69.5,69.5Z" fill="#414141"/>
    <path d="M432.4,149.6c.6-.8.5-2-.4-2.6-9.4-7.1-20.6-10.9-32.5-10.9-30,0-54.5,24.4-54.5,54.5s24.4,54.5,54.5,54.5,54.5-24.4,54.5-54.5-3.8-23.2-10.9-32.5c-.6-.8-1.8-1-2.6-.4-.8.6-1,1.8-.4,2.6,6.6,8.7,10.1,19.2,10.1,30.3,0,28-22.7,50.7-50.7,50.7s-50.7-22.7-50.7-50.7,22.7-50.7,50.7-50.7,21.5,3.5,30.3,10.1c.8.6,2,.5,2.6-.4Z" fill="#414141"/>
    <path d="M421.8,160.1c.6-.9.3-2-.6-2.6-6.5-4.2-14.1-6.5-21.8-6.5-21.7,0-39.4,17.7-39.4,39.4s17.7,39.4,39.4,39.4,39.4-17.7,39.4-39.4-2.2-15.2-6.5-21.8c-.6-.9-1.7-1.1-2.6-.6-.9.6-1.1,1.7-.6,2.6,3.8,5.9,5.9,12.7,5.9,19.7,0,19.7-16,35.7-35.7,35.7s-35.7-16-35.7-35.7,16-35.7,35.7-35.7,13.8,2,19.7,5.9c.9.6,2,.3,2.6-.6Z" fill="#414141"/>
    <path d="M408.4,171.9c.9.4,2.1,0,2.5-.9.4-.9,0-2.1-.9-2.5-3.3-1.5-7-2.4-10.5-2.4-13.5,0-24.4,11-24.4,24.4s11,24.4,24.4,24.4,24.4-11,24.4-24.4-.8-7.1-2.3-10.5c-.4-.9-1.5-1.4-2.5-.9-.9.4-1.4,1.5-.9,2.5,1.3,2.8,2,5.9,2,8.9,0,11.4-9.3,20.7-20.7,20.7s-20.7-9.3-20.7-20.7,9.3-20.7,20.7-20.7,6.1.7,8.9,2Z" fill="#414141"/>
    <path d="M482.1,121h-10.5l4.3-4.3c.7-.7.7-1.9,0-2.7-.7-.7-1.9-.7-2.7,0l-4.3,4.3v-10.5c0-1-.8-1.9-1.9-1.9s-1.9.8-1.9,1.9v14.2l-3.8,3.8v-10.5c0-1-.8-1.9-1.9-1.9s-1.9.8-1.9,1.9v14.2l-3.8,3.8v-10.5c0-1-.8-1.9-1.9-1.9s-1.9.8-1.9,1.9v14.2l-52,52c-.7.7-.7,1.9,0,2.7.7.7,1.9.7,2.7,0l52-52h14.2c1,0,1.9-.8,1.9-1.9s-.8-1.9-1.9-1.9h-10.5l3.8-3.8h14.2c1,0,1.9-.8,1.9-1.9s-.8-1.9-1.9-1.9h-10.5l3.8-3.8h14.2c1,0,1.9-.8,1.9-1.9s-.8-1.9-1.9-1.9Z" fill="#414141"/>
  </g>
  <path d="M173.5,594c-21.8,0-39.5,17.7-39.5,39.5s17.7,39.5,39.5,39.5,39.5-17.7,39.5-39.5-17.7-39.5-39.5-39.5ZM181,668.4c-2.4.5-4.9.8-7.5.8s-5.1-.3-7.5-.8v-3h15v3ZM181,661.7h-15.1c0-1.3-.2-2.6-.5-3.8h16c-.3,1.2-.4,2.5-.5,3.8ZM172,654.2l-7.9-20.9c.4-1.5,4-3.5,9.4-3.5s9,2,9.4,3.5l-7.8,20.9h-3ZM179.1,654.2l7.5-20c0-.2.1-.4.1-.7,0-4.3-5.7-7.5-13.2-7.5s-13.2,3.2-13.2,7.5,0,.5.1.7l7.5,20h-3.9c-.9-1.8-2.2-3.5-3.7-4.8-4.8-4-7.6-9.8-7.6-15.9,0-11.4,9.3-20.7,20.7-20.7s20.7,9.3,20.7,20.7-2.8,12-7.6,15.9c-1.6,1.3-2.8,2.9-3.7,4.8h-3.8ZM184.8,667.4v-5.4c0-3.9,1.6-7.5,4.2-9.7,5.7-4.7,9-11.5,9-18.8,0-13.5-11-24.5-24.5-24.5s-24.5,11-24.5,24.5,3.3,14.2,8.9,18.8c2.6,2.2,4.2,5.8,4.2,9.7v5.4c-14.2-4.7-24.5-18.1-24.5-33.9s16-35.7,35.7-35.7,35.7,16,35.7,35.7-10.3,29.2-24.5,33.9Z" fill="#414141"/>
  <path d="M800,250c-1,0-1.9.8-1.9,1.9v44.5l-74.8,104.7c-.4.6-.5,1.3-.1,2,.3.6,1,1,1.7,1h150.2c.7,0,1.3-.4,1.7-1,.3-.6.3-1.4-.1-2l-74.8-104.7v-12.5h35.7c.8,0,1.4-.5,1.7-1.2.3-.7.1-1.5-.4-2l-9.9-9.9,9.9-9.9c.5-.5.7-1.3.4-2-.3-.7-1-1.2-1.7-1.2h-35.7v-5.6c0-1-.8-1.9-1.9-1.9ZM871.5,400.2h-142.9l52.3-73.2,6.4,8.6c.7.9,2.3.9,3,0l9.8-13,9.8,13c.7.9,2.3.9,3,0l6.4-8.6,52.3,73.2ZM816.9,323.9l-5.7,7.5-9.8-13c-.7-.9-2.3-.9-3,0l-9.8,13-5.7-7.5,16.9-23.7,16.9,23.7ZM833,261.3l-8.1,8.1c-.7.7-.7,1.9,0,2.7l8.1,8.1h-31.1v-18.8h31.1Z" fill="#414141"/>
  <g>
    <path d="M268,394.1c.4.4.9.6,1.6.5.6,0,1.1-.5,1.4-1l9.4-18.8c.5-.9,0-2.1-.8-2.5-.9-.5-2.1,0-2.5.8l-8.2,16.5-7.5-7.6c-.7-.7-1.9-.7-2.7,0-.7.7-.7,1.9,0,2.7l9.4,9.4Z" fill="#414141"/>
    <path d="M213,328.9c21.7,0,39.4-17.7,39.4-39.5s-17.7-39.5-39.4-39.5-39.4,17.7-39.4,39.5,17.7,39.5,39.4,39.5ZM220.5,324.3c-2.4.5-4.9.8-7.5.8s-5.1-.3-7.5-.8v-3h15v3ZM220.5,317.6h-15.1c0-1.3-.2-2.5-.5-3.8h16c-.3,1.2-.4,2.5-.5,3.8ZM211.5,310.1l-7.9-20.9c.4-1.5,4-3.5,9.4-3.5s9,2,9.4,3.5l-7.8,20.9h-3ZM218.6,310.1l7.5-20c0-.2.1-.4.1-.7,0-4.3-5.7-7.5-13.1-7.5s-13.1,3.2-13.1,7.5,0,.5.1.7l7.5,20h-3.9c-.9-1.8-2.2-3.5-3.7-4.8-4.8-4-7.6-9.8-7.6-15.9,0-11.4,9.3-20.7,20.7-20.7s20.7,9.3,20.7,20.7-2.8,12-7.6,15.9c-1.5,1.3-2.8,2.9-3.7,4.7h-3.8ZM213,253.8c19.7,0,35.7,16,35.7,35.7s-10.2,29.1-24.4,33.9v-5.4c0-3.9,1.6-7.5,4.2-9.7,5.7-4.7,8.9-11.5,8.9-18.8,0-13.5-11-24.4-24.4-24.4s-24.4,11-24.4,24.4,3.3,14.1,8.9,18.8c2.6,2.2,4.2,5.8,4.2,9.7v5.4c-14.2-4.7-24.4-18.1-24.4-33.9s16-35.7,35.7-35.7Z" fill="#414141"/>
    <path d="M166.9,372.3c-.9-.5-2.1,0-2.5.8l-8.2,16.5-7.5-7.6c-.7-.7-1.9-.7-2.7,0-.7.7-.7,1.9,0,2.7l9.4,9.4c.4.4.9.6,1.6.5.6,0,1.1-.5,1.4-1l9.4-18.8c.5-.9,0-2.1-.8-2.5Z" fill="#414141"/>
    <path d="M137.9,404h37.6c1,0,1.9-.8,1.9-1.9v-37.6c0-1-.8-1.9-1.9-1.9h-37.6c-1,0-1.9.8-1.9,1.9v37.6c0,1,.8,1.9,1.9,1.9ZM139.8,366.4h33.8v33.8h-33.8v-33.8Z" fill="#414141"/>
    <path d="M288.1,362.7h-37.6c-1,0-1.9.8-1.9,1.9v37.6c0,1,.8,1.9,1.9,1.9h37.6c1,0,1.9-.8,1.9-1.9v-37.6c0-1-.8-1.9-1.9-1.9ZM286.2,400.2h-33.8v-33.8h33.8v33.8Z" fill="#414141"/>
    <path d="M194.2,362.7c-1,0-1.9.8-1.9,1.9v37.6c0,1,.8,1.9,1.9,1.9h37.6c1,0,1.9-.8,1.9-1.9v-37.6c0-1-.8-1.9-1.9-1.9h-37.6ZM229.9,400.2h-33.8v-33.8h33.8v33.8Z" fill="#414141"/>
    <path d="M156.7,358.9c1,0,1.9-.8,1.9-1.9v-5.6h52.6v5.6c0,1,.8,1.9,1.9,1.9s1.9-.8,1.9-1.9v-5.6h52.6v5.6c0,1,.8,1.9,1.9,1.9s1.9-.8,1.9-1.9v-7.5c0-1-.8-1.9-1.9-1.9h-54.5v-13.1c0-1-.8-1.9-1.9-1.9s-1.9.8-1.9,1.9v13.1h-54.5c-1,0-1.9.8-1.9,1.9v7.5c0,1,.8,1.9,1.9,1.9Z" fill="#414141"/>
  </g>
  <g>
    <path d="M443.3,828.9c-.9-.5-2.1-.2-2.6.7-3.7,6.4-5.7,13.8-5.7,21.2,0,23.8,19.4,43.2,43.2,43.2s43.2-19.4,43.2-43.2-2-15-5.7-21.4c-.5-.9-1.7-1.2-2.6-.7-.9.5-1.2,1.7-.7,2.6,3.4,5.8,5.2,12.6,5.2,19.5,0,21.7-17.7,39.4-39.4,39.4s-39.4-17.7-39.4-39.4,1.8-13.5,5.2-19.3c.5-.9.2-2-.7-2.6Z" fill="#414141"/>
    <path d="M523.4,777.6h-2.2c.2-.6.3-1.2.3-1.9v-7.5c0-3.1-2.5-5.6-5.6-5.6h-23.7l5-15.1c.6-1.7.3-3.6-.8-5.1-1.1-1.5-2.7-2.3-4.6-2.3h-27.1c-1.8,0-3.5.9-4.6,2.3-1.1,1.5-1.3,3.3-.8,5.1l5.9,17.6c.3.8,1,1.3,1.8,1.3h48.8c1,0,1.9.8,1.9,1.9v7.5c0,1-.8,1.9-1.9,1.9h-26.3c-1,0-1.9.8-1.9,1.9s.8,1.9,1.9,1.9h33.8c1,0,1.9.8,1.9,1.9v7.5c0,1-.8,1.9-1.9,1.9h-37.6c-1,0-1.9.8-1.9,1.9s.8,1.9,1.9,1.9h30c1,0,1.9.8,1.9,1.9v7.5c0,1-.8,1.9-1.9,1.9h-37.6c-1,0-1.9.8-1.9,1.9s.8,1.9,1.9,1.9h30c1,0,1.9.8,1.9,1.9v7.5c0,1-.8,1.9-1.9,1.9h-48.8c-12.1,0-19.9-2.3-26.8-4.2-5.8-1.7-11.3-3.3-18.3-3.3h-5.6v-41.3h5.6c9.5,0,18.7-8.1,26.1-14.6,4.4-3.9,9-7.9,11.4-7.9h2.1c1,0,1.9-.8,1.9-1.9s-.8-1.9-1.9-1.9h-2.1c-3.8,0-8.3,3.9-13.9,8.9-6.9,6.1-15.6,13.7-23.7,13.7h-5.6v-1.9c0-3.1-2.5-5.6-5.6-5.6h-22.5c-3.1,0-5.6,2.5-5.6,5.6v52.6c0,3.1,2.5,5.6,5.6,5.6h22.5c3.1,0,5.6-2.5,5.6-5.6v-1.9h5.6c6.5,0,11.5,1.4,17.2,3.1,7.1,2.1,15.2,4.4,27.8,4.4h48.8c3.1,0,5.6-2.5,5.6-5.6v-7.5c0-.7-.1-1.3-.3-1.9h2.2c3.1,0,5.6-2.5,5.6-5.6v-7.5c0-.7-.1-1.3-.3-1.9h2.2c3.1,0,5.6-2.5,5.6-5.6v-7.5c0-3.1-2.5-5.6-5.6-5.6ZM468.4,762.5l-5.4-16.3c-.2-.6-.1-1.2.3-1.7.4-.5.9-.8,1.5-.8h27.1c.6,0,1.2.3,1.5.8.4.5.5,1.1.3,1.7l-5.4,16.3h-19.8ZM405,820.8c0,1-.8,1.9-1.9,1.9h-22.5c-1,0-1.9-.8-1.9-1.9v-52.6c0-1,.8-1.9,1.9-1.9h22.5c1,0,1.9.8,1.9,1.9v52.6Z" fill="#414141"/>
    <path d="M470.8,860.2c-1,0-1.9.8-1.9,1.9v7.5c0,1,.8,1.9,1.9,1.9h5.6v5.6c0,1,.8,1.9,1.9,1.9s1.9-.8,1.9-1.9v-5.6h5.6c1,0,1.9-.8,1.9-1.9v-15c0-1-.8-1.9-1.9-1.9h-13.1v-11.3h3.8v5.6c0,1,.8,1.9,1.9,1.9s1.9-.8,1.9-1.9v-5.6h3.8v5.6c0,1,.8,1.9,1.9,1.9s1.9-.8,1.9-1.9v-7.5c0-1-.8-1.9-1.9-1.9h-5.6v-5.6c0-1-.8-1.9-1.9-1.9s-1.9.8-1.9,1.9v5.6h-5.6c-1,0-1.9.8-1.9,1.9v15c0,1,.8,1.9,1.9,1.9h13.1v11.3h-3.8v-5.6c0-1-.8-1.9-1.9-1.9s-1.9.8-1.9,1.9v5.6h-3.8v-5.6c0-1-.8-1.9-1.9-1.9Z" fill="#414141"/>
  </g>
  <g>
    <path d="M378.5,594c-27.8,0-50.5,22.7-50.5,50.5s22.7,50.5,50.5,50.5,18.4-2.5,26.2-7.4l21.9,7.3c1.5.5,2.8-.9,2.4-2.4l-7.3-21.9c4.8-7.8,7.4-16.8,7.4-26.2,0-27.8-22.7-50.5-50.5-50.5ZM418,669.4c-.3.5-.4,1.1-.2,1.6l6.4,19.2-19.2-6.4c-.5-.2-1.1-.1-1.6.2-7.4,4.7-16,7.2-24.9,7.2-25.8,0-46.8-21-46.8-46.8s21-46.8,46.8-46.8,46.8,21,46.8,46.8-2.5,17.5-7.2,24.9Z" fill="#414141"/>
    <path d="M359.8,663.5c-1,0-1.9.8-1.9,1.9v15.6c0,1,.8,1.9,1.9,1.9s1.9-.8,1.9-1.9v-15.6c0-1-.8-1.9-1.9-1.9Z" fill="#414141"/>
    <path d="M397.2,663.5c-1,0-1.9.8-1.9,1.9v15.6c0,1,.8,1.9,1.9,1.9s1.9-.8,1.9-1.9v-15.6c0-1-.8-1.9-1.9-1.9Z" fill="#414141"/>
    <path d="M402.5,647.8l-18-5.1,2.9-2c2.6-1.7,4.2-4.6,4.2-7.8v-14.7c0-3.1-2.5-5.6-5.6-5.6h-15c-3.1,0-5.6,2.5-5.6,5.6v14.7c0,3.1,1.6,6,4.2,7.8l2.9,2-18.1,5.1c-2.4.8-4,3-4,5.4v22.9c0,1,.8,1.9,1.9,1.9s1.9-.8,1.9-1.9v-22.9c0-.9.6-1.6,1.3-1.9l23-6.5,22.9,6.5c.9.3,1.4,1,1.4,1.9v22.9c0,1,.8,1.9,1.9,1.9s1.9-.8,1.9-1.9v-22.9c0-2.5-1.6-4.7-4.1-5.5ZM375.4,640.1l-3.7-2.5c-1.6-1-2.5-2.8-2.5-4.7v-14.7c0-1,.8-1.9,1.9-1.9h15c1,0,1.9.8,1.9,1.9v14.7c0,1.9-.9,3.6-2.5,4.7l-3.7,2.5c-1.9,1.3-4.3,1.3-6.2,0Z" fill="#414141"/>
  </g>
  <g>
    <path d="M567.4,385.2h-1.9v-84.5c0-3.2-2.5-5.6-5.6-5.6h-15.4c-1,0-1.9.8-1.9,1.9s.8,1.9,1.9,1.9h15.4c1.1,0,1.9.8,1.9,1.9v84.5h-39c-3,0-6,.7-8.8,2.1-2.2,1.1-4.6,1.7-7,1.7h-21.7c-2.4,0-4.9-.6-7.1-1.7-2.7-1.3-5.7-2.1-8.7-2.1h-39v-84.5c0-1.1.8-1.9,1.9-1.9h15.5c1,0,1.9-.8,1.9-1.9s-.8-1.9-1.9-1.9h-15.5c-3.2,0-5.6,2.5-5.6,5.6v84.5h-1.9c-3.1,0-5.6,2.5-5.6,5.6v3.8c0,5.2,4.2,9.4,9.4,9.4h135.2c5.2,0,9.4-4.2,9.4-9.4v-3.8c0-3.1-2.5-5.6-5.6-5.6ZM569.2,394.6c0,3.1-2.5,5.6-5.6,5.6h-135.2c-3.1,0-5.6-2.5-5.6-5.6v-3.8c0-1,.8-1.9,1.9-1.9h44.7c2.4,0,4.9.6,7.1,1.7,2.7,1.3,5.7,2.1,8.7,2.1h21.7c3,0,6-.7,8.8-2.1,2.2-1.1,4.6-1.7,7-1.7h44.7c1,0,1.9.8,1.9,1.9v3.8Z" fill="#414141"/>
    <path d="M448.8,306.4c1,0,1.9-.8,1.9-1.9s-.8-1.9-1.9-1.9h-12.9c-1,0-1.9.8-1.9,1.9v75.1c0,1,.8,1.9,1.9,1.9h120.2c1,0,1.9-.8,1.9-1.9v-75.1c0-1-.8-1.9-1.9-1.9h-12.9c-1,0-1.9.8-1.9,1.9s.8,1.9,1.9,1.9h11v71.4h-116.4v-71.4h11Z" fill="#414141"/>
    <path d="M492.2,371.8h7.5c3.2,0,5.6-2.5,5.6-5.6v-2.1c4.3-.9,7.5-4.7,7.5-9.2v-13.8c1.5-.8,2.6-2.4,2.6-4.4,0-3.3,1.7-6.4,4.5-8.3,11.9-8,19-21.3,19-35.6s-4.6-22.5-12.8-30.6c-8.1-8-18.8-12.3-30.1-12.3s-22,4.4-30.1,12.3c-8.3,8.1-12.8,19-12.8,30.6s7.1,27.6,19,35.6c2.8,1.9,4.5,5,4.5,8.3s1,3.5,2.6,4.4v13.8c0,4.5,3.2,8.3,7.5,9.2v2.1c0,3.2,2.5,5.6,5.6,5.6ZM501.6,366.2c0,1.1-.8,1.9-1.9,1.9h-7.5c-1.1,0-1.9-.8-1.9-1.9v-1.9h11.3v1.9ZM509.1,345.5h-26.3v-3.8h26.3v3.8ZM491.4,328c0-2.5,2-4.5,4.6-4.5s4.6,2,4.6,4.5v10h-9.1v-10ZM472.6,289.6c6.5-7.2,14.9-11.2,23.3-11.2s16.9,4,23.5,11.2l-20.4,30.7c-.9-.4-1.9-.6-2.9-.6s-2.1.2-3,.5l-20.4-30.7ZM481.4,338c-.6,0-1.1-.5-1.1-1.1,0-4.6-2.3-8.9-6.2-11.5-10.8-7.3-17.3-19.4-17.3-32.5s4.2-20.5,11.7-27.9c7.4-7.3,17.2-11.3,27.5-11.3s20.1,4,27.5,11.3c7.5,7.4,11.7,17.3,11.7,27.9s-6.5,25.2-17.3,32.5c-3.9,2.6-6.2,6.8-6.2,11.5s-.5,1.1-1.1,1.1h-6.3v-10c0-2.2-.8-4.1-2.2-5.6l21.2-31.9c.5-.7.4-1.6-.1-2.3-7.5-8.7-17-13.5-27.2-13.5s-19.9,4.9-27.2,13.5c-.5.6-.6,1.6-.1,2.3l21.2,31.9c-1.4,1.5-2.2,3.4-2.2,5.6v10h-6.3ZM482.9,349.3h26.3v3.8h-26.3v-3.8ZM483.2,356.8h25.6c-.8,2.2-2.8,3.8-5.3,3.8h-15c-2.4,0-4.5-1.6-5.3-3.8Z" fill="#414141"/>
    <path d="M487.7,262.5c2.6-.7,5.2-1.1,7.8-1.2,1,0,1.9-.9,1.8-1.9,0-1-.9-1.9-1.9-1.8-3,0-5.9.5-8.8,1.3-1,.3-1.6,1.3-1.3,2.3.2.8,1.2,1.6,2.3,1.3Z" fill="#414141"/>
    <path d="M481.1,265.1c.9-.5,1.2-1.6.7-2.6-.5-.9-1.7-1.2-2.6-.7-7,3.8-12.6,9.9-15.8,17.2-.4.9,0,2,1,2.5,1,.5,2.1-.1,2.5-1,2.8-6.5,7.9-12,14.1-15.4Z" fill="#414141"/>
  </g>
  <g>
    <path d="M610,828c5.7,3.8,9.1,10.2,9.1,17.1v7.8c0,2.4,1.6,4.5,3.7,5.3v2.2c0,3.2,2.5,5.6,5.6,5.6h15c3.2,0,5.6-2.5,5.6-5.6v-2.2c2.2-.8,3.8-2.8,3.8-5.3v-7.8c0-6.9,3.4-13.3,9.1-17.1,13.1-8.7,21-23.4,21-39.1s-6.3-27.5-17.4-36.5c-8.4-6.8-19.1-10.5-29.6-10.5s-21.2,3.6-29.6,10.5c-11,9-17.4,22.3-17.4,36.5s7.8,30.3,21,39.1ZM645.4,860.4c0,1.1-.8,1.9-1.9,1.9h-15c-1.1,0-1.9-.8-1.9-1.9v-1.9h18.8v1.9ZM649.2,852.8c0,1-.8,1.9-1.9,1.9h-22.5c-1,0-1.9-.8-1.9-1.9v-1.9h26.3v1.9ZM649.2,845.1v2.1h-26.3v-2.1c0-.5,0-1.1,0-1.6h26.4c0,.5,0,1.1,0,1.6ZM649.8,839.7h-27.5c-.3-1.3-.7-2.5-1.2-3.8h29.9c-.5,1.2-.9,2.5-1.2,3.8ZM631.4,825.3c0-2.4,2-4.4,4.6-4.4s4.6,2,4.6,4.4v6.8h-9.2v-6.8ZM612.6,786.9c6.5-7.2,14.7-11.2,23.4-11.2s16.8,4,23.4,11.2l-20.4,30.7c-.9-.3-1.9-.5-3-.5s-2,.2-3,.6l-20.5-30.7ZM608.8,755.3c7.7-6.3,17.3-9.6,27.2-9.6,9.9,0,19.5,3.4,27.2,9.6,10.2,8.3,16,20.5,16,33.6s-7.2,27.9-19.3,36c-2.9,1.9-5.3,4.4-7.1,7.3h-8.5v-6.8c0-2.2-.8-4.1-2.2-5.6l21.2-31.9c.5-.7.4-1.6-.1-2.3-7.5-8.7-17-13.5-27.2-13.5s-19.9,4.9-27.2,13.6c-.5.6-.6,1.6-.1,2.3l21.3,31.9c-1.4,1.5-2.3,3.4-2.3,5.6v6.8h-8.5c-1.8-2.9-4.2-5.4-7.1-7.3-12.1-8-19.3-21.5-19.3-36s5.8-25.3,16-33.6Z" fill="#414141"/>
    <path d="M711.8,787.1l-23-6.5c-1-.3-2,.3-2.3,1.3-.3,1,.3,2,1.3,2.3l16.7,4.7-16.7,4.7c-1,.3-1.6,1.3-1.3,2.3.3,1,1.3,1.6,2.3,1.3l23-6.5c1.6-.5,1.6-3.2,0-3.6Z" fill="#414141"/>
    <path d="M676.2,820.3c-.3,1,.4,2,1.4,2.3l23.2,5.8c1.6.4,3-1.9,1.8-3.1l-16.7-17.2c-.7-.7-1.9-.8-2.7,0-.7.7-.8,1.9,0,2.7l12.1,12.4-16.8-4.2c-1-.3-2,.4-2.3,1.4Z" fill="#414141"/>
    <path d="M700.7,749.5l-23.2,5.8c-1,.3-1.6,1.3-1.4,2.3.2,1,1.3,1.6,2.3,1.4l16.8-4.2-12.1,12.4c-.7.7-.7,1.9,0,2.7.7.7,1.9.7,2.7,0l16.7-17.2c1.2-1.2-.2-3.5-1.8-3.1Z" fill="#414141"/>
    <path d="M667.3,748.8c1,.3,2-.4,2.3-1.4l5.8-23.2c.4-1.6-1.9-3-3.1-1.8l-17.2,16.7c-.7.7-.8,1.9,0,2.7.7.7,1.9.8,2.7,0l12.4-12.1-4.2,16.8c-.3,1,.4,2,1.4,2.3Z" fill="#414141"/>
    <path d="M560.2,790.7l23,6.5c1,.3,2-.3,2.3-1.3.3-1-.3-2-1.3-2.3l-16.7-4.7,16.7-4.7c1-.3,1.6-1.3,1.3-2.3-.3-1-1.3-1.6-2.3-1.3l-23,6.5c-1.6.5-1.6,3.2,0,3.6Z" fill="#414141"/>
    <path d="M588.8,808c-.7-.7-1.9-.7-2.7,0l-16.7,17.2c-1.2,1.2.2,3.5,1.8,3.1l23.2-5.8c1-.3,1.6-1.3,1.4-2.3-.2-1-1.3-1.6-2.3-1.4l-16.8,4.2,12.1-12.4c.7-.7.7-1.9,0-2.7Z" fill="#414141"/>
    <path d="M594.5,755.3l-23.2-5.8c-1.6-.4-3,1.9-1.8,3.1l16.7,17.2c.7.7,1.9.8,2.7,0,.7-.7.8-1.9,0-2.7l-12.1-12.4,16.8,4.2c1,.3,2-.4,2.3-1.4.3-1-.4-2-1.4-2.3Z" fill="#414141"/>
    <path d="M616.9,741.7c.7-.7.7-1.9,0-2.7l-17.2-16.7c-1.2-1.2-3.5.2-3.1,1.8l5.8,23.2c.3,1,1.3,1.6,2.3,1.4,1-.2,1.6-1.3,1.4-2.3l-4.2-16.8,12.4,12.1c.7.7,1.9.7,2.7,0Z" fill="#414141"/>
    <path d="M631.3,737.3l4.7-16.7,4.7,16.7c.3,1,1.3,1.6,2.3,1.3,1-.3,1.6-1.3,1.3-2.3l-6.5-23c-.5-1.6-3.2-1.6-3.6,0l-6.5,23c-.3,1,.3,2,1.3,2.3,1,.3,2-.3,2.3-1.3Z" fill="#414141"/>
  </g>
  <g>
    <path d="M602.9,251.9h60.2c1,0,1.9-.8,1.9-1.9s-.8-1.9-1.9-1.9h-58.3c1-39.5,33.9-72.7,76-71.3,1,0,1.9-.6,2-1.6.1-1.1-.7-2.1-1.7-2.1-45.1-1.6-80.1,34.5-80.1,76.9s.8,1.9,1.9,1.9Z" fill="#414141"/>
    <path d="M661.4,257.5c0-1-.8-1.9-1.9-1.9h-56.3c-1,0-2,.8-1.9,2.1,3.7,36.7,32.7,65.3,68.9,68.9.9,0,2.1-.5,2.1-1.9v-52.8c0-1-.8-1.9-1.9-1.9s-1.9.8-1.9,1.9v50.7c-32.9-4.2-59-30.4-63.3-63.3h54.2c1,0,1.9-.8,1.9-1.9Z" fill="#414141"/>
    <path d="M678,268.6c-1,0-1.9.8-1.9,1.9v54.6c0,1,.8,1.9,1.9,1.9,42.5,0,78.5-35,76.9-80.1,0-1-1-1.8-2-1.7-1,0-1.8,1-1.7,2,1.4,42.1-31.8,75-71.3,76v-52.7c0-1-.8-1.9-1.9-1.9Z" fill="#414141"/>
    <path d="M708,173c-25.9,0-47,21.1-47,47s3,19.1,8.6,27c-.7,4.2-2.7,11.5-8,16.8-1.4,1.4,0,3.2,1.3,3.2.6,0,13.3,0,23-5.5,6.8,3.6,14.4,5.5,22.1,5.5,25.9,0,47-21.1,47-47s-21.1-47-47-47ZM708,263.1c-7.4,0-15-2-21.2-5.6-.5-.3-1.3-.4-1.9,0-5.7,3.5-13.1,4.8-17.7,5.3,4.2-5.8,5.7-12.4,6.2-16.2,0-.5,0-1-.3-1.4-5.4-7.4-8.3-16.2-8.3-25.4,0-23.8,19.4-43.2,43.2-43.2s43.2,19.4,43.2,43.2-19.4,43.2-43.2,43.2Z" fill="#414141"/>
  </g>
  <g>
    <path d="M239,751.8c13.7,0,24.8-11.1,24.8-24.8s-11.1-24.8-24.8-24.8-24.8,11.1-24.8,24.8,11.1,24.8,24.8,24.8ZM239,705.9c11.6,0,21,9.4,21,21s-9.4,21-21,21-21-9.4-21-21,9.4-21,21-21Z" fill="#414141"/>
    <path d="M284.1,793.3c0,11.7,9.5,21.2,21.2,21.2s21.2-9.5,21.2-21.2-9.5-21.2-21.2-21.2-21.2,9.5-21.2,21.2ZM322.8,793.3c0,9.6-7.8,17.5-17.5,17.5s-17.5-7.8-17.5-17.5,7.8-17.5,17.5-17.5,17.5,7.8,17.5,17.5Z" fill="#414141"/>
    <path d="M208.8,703.2l-7.5-3c-.8-.3-1.8,0-2.3.7-3.5,5.4-5.8,11.4-7,17.7-.2.9.3,1.8,1.2,2.1l7.5,3c-.3,2.6-.2,5.1,0,7.8l-7.3,3.2c-.8.4-1.3,1.2-1.1,2.1.6,2.9,1.6,6,2.9,9.1,1.4,3.1,2.9,6,4.7,8.4.5.7,1.5,1,2.3.6l7.3-3.2c1.7,2,3.6,3.8,5.6,5.4l-3,7.5c-.3.8,0,1.8.7,2.3,5.5,3.5,11.4,5.8,17.7,7,.1,0,.2,0,.3,0,.8,0,1.5-.5,1.7-1.2l3-7.5c2.5.3,5.1.2,7.8,0l3.2,7.3c.4.8,1.2,1.2,2.1,1.1,2.9-.6,6-1.6,9.1-2.9,3.1-1.4,6-2.9,8.4-4.7.7-.5,1-1.5.6-2.3l-3.2-7.3c2-1.7,3.8-3.6,5.4-5.6l7.5,3c.8.3,1.8,0,2.3-.7,3.4-5.4,5.8-11.4,7-17.7.2-.9-.3-1.8-1.2-2.1l-7.5-3c.3-2.5.2-5.1,0-7.8l7.3-3.2c.8-.4,1.3-1.2,1.1-2.1-.6-2.9-1.6-6-2.9-9.1-1.4-3.1-2.9-6-4.7-8.4-.5-.7-1.5-1-2.3-.6l-7.3,3.2c-1.7-2-3.6-3.8-5.6-5.4l3-7.5c.3-.8,0-1.8-.7-2.3-5.4-3.5-11.4-5.8-17.7-7-.9-.2-1.8.3-2.1,1.2l-3,7.5c-2.6-.3-5.1-.2-7.8,0l-3.2-7.3c-.4-.8-1.2-1.3-2.1-1.1-2.9.6-6,1.6-9.1,2.9-3.1,1.4-6,2.9-8.4,4.7-.7.5-1,1.5-.6,2.3l3.2,7.3c-2,1.7-3.8,3.6-5.4,5.6ZM217.6,699.6c.7-.5.9-1.4.6-2.2l-3.1-7.2c1.9-1.3,4.1-2.4,6.4-3.4,2.4-1,4.7-1.8,6.9-2.4l3.1,7.2c.3.8,1.2,1.3,2,1.1,3.3-.5,6.4-.6,9.5-.1.9.1,1.7-.4,2-1.2l2.9-7.4c4.8,1.1,9.3,2.9,13.6,5.4l-2.9,7.4c-.3.8,0,1.7.7,2.2,2.6,1.8,4.9,4,6.9,6.6.5.7,1.4.9,2.2.6l7.2-3.1c1.3,1.9,2.4,4.1,3.4,6.4,1,2.4,1.8,4.7,2.4,6.9l-7.2,3.1c-.8.3-1.2,1.2-1.1,2,.5,3.3.6,6.4.1,9.5-.1.9.4,1.7,1.2,2l7.4,2.9c-1.1,4.8-2.9,9.4-5.4,13.6l-7.4-2.9c-.8-.3-1.7,0-2.2.7-1.8,2.6-4,4.9-6.6,6.9-.7.5-.9,1.4-.6,2.2l3.1,7.2c-1.9,1.3-4.1,2.4-6.4,3.4-2.4,1-4.7,1.8-6.9,2.4l-3.1-7.2c-.3-.8-1.2-1.3-2-1.1-3.3.5-6.4.6-9.5.1-.8-.1-1.7.4-2,1.2l-2.9,7.4c-4.8-1.1-9.3-2.9-13.6-5.4l2.9-7.4c.3-.8,0-1.7-.7-2.2-2.6-1.8-4.9-4-6.9-6.6-.5-.7-1.4-.9-2.2-.6l-7.2,3.1c-1.2-1.9-2.4-4.1-3.4-6.4-1-2.4-1.8-4.7-2.4-6.9l7.2-3.1c.8-.3,1.2-1.2,1.1-2-.5-3.3-.6-6.4-.1-9.5.1-.9-.4-1.7-1.2-2l-7.4-2.9c1.1-4.8,2.9-9.3,5.4-13.6l7.4,2.9c.8.3,1.7,0,2.2-.7,1.8-2.6,4-4.9,6.6-6.9Z" fill="#414141"/>
    <path d="M314.6,753.6c-5.4-1.2-10.9-1.3-16.3-.5-.9.1-1.6.9-1.6,1.8l-.2,6.7c-2,.5-3.9,1.2-5.8,2.2l-4.5-4.8c-.6-.6-1.6-.8-2.3-.3-2.2,1.3-4.4,3-6.5,5-2.1,2-3.9,4.1-5.4,6.2-.5.7-.4,1.7.2,2.3l4.5,4.8c-1,1.8-1.9,3.7-2.5,5.7l-6.7-.2c-1-.1-1.7.6-1.9,1.5-1.2,5.4-1.3,10.9-.5,16.3.1.9.9,1.5,1.8,1.6l6.7.2c.5,2,1.2,3.9,2.2,5.8l-4.8,4.5c-.6.6-.8,1.6-.3,2.3,1.3,2.2,3,4.4,5,6.5,2,2.1,4.1,3.9,6.2,5.4.7.5,1.7.4,2.3-.2l4.8-4.5c1.8,1,3.7,1.9,5.7,2.5l-.2,6.7c0,.9.6,1.7,1.5,1.9,3.1.7,6.2,1,9.3,1s4.6-.2,6.9-.6c.9-.1,1.6-.9,1.6-1.8l.2-6.7c2-.5,3.9-1.2,5.8-2.2l4.5,4.8c.6.6,1.6.8,2.3.3,2.2-1.3,4.4-3,6.5-5,2.1-2,3.9-4.1,5.4-6.2.5-.7.4-1.7-.2-2.3l-4.5-4.8c1.1-1.8,1.9-3.7,2.5-5.7l6.7.2c.9,0,1.7-.6,1.9-1.5,1.2-5.4,1.3-10.8.5-16.3-.1-.9-.9-1.5-1.8-1.6l-6.7-.2c-.5-2-1.2-3.9-2.2-5.8l4.8-4.5c.6-.6.8-1.6.3-2.3-1.3-2.2-3-4.4-5-6.5-2-2.1-4.1-3.9-6.2-5.4-.7-.5-1.7-.4-2.3.2l-4.8,4.5c-1.8-1-3.7-1.9-5.7-2.5l.2-6.7c0-.9-.6-1.7-1.5-1.9ZM320.8,768.6c.7.5,1.7.4,2.3-.2l4.7-4.4c1.5,1.1,2.9,2.4,4.4,4,1.4,1.5,2.7,3.1,3.7,4.6l-4.7,4.4c-.6.6-.8,1.5-.3,2.3,1.4,2.4,2.3,4.9,2.8,7.5.2.9.9,1.5,1.8,1.5l6.5.2c.5,3.9.4,7.9-.3,11.8l-6.5-.2c-.7,0-1.6.6-1.9,1.4-.7,2.6-1.7,5-3.2,7.3-.5.7-.4,1.7.2,2.3l4.4,4.7c-1.1,1.5-2.5,2.9-4,4.4-1.5,1.4-3.1,2.7-4.6,3.7l-4.4-4.7c-.6-.6-1.5-.8-2.3-.3-2.4,1.4-4.9,2.3-7.5,2.8-.9.2-1.5.9-1.5,1.8l-.2,6.5c-3.9.5-7.9.4-11.8-.3l.2-6.5c0-.9-.6-1.7-1.4-1.9-2.6-.7-5-1.7-7.3-3.2-.7-.5-1.7-.4-2.3.2l-4.7,4.4c-1.5-1.1-2.9-2.5-4.4-4-1.4-1.5-2.7-3-3.7-4.6l4.7-4.4c.6-.6.8-1.5.3-2.3-1.4-2.4-2.3-4.9-2.8-7.5-.2-.9-.9-1.5-1.8-1.5l-6.5-.2c-.5-3.9-.4-7.9.3-11.8l6.5.2c.8,0,1.7-.6,1.9-1.4.7-2.6,1.7-5,3.2-7.3.5-.7.4-1.7-.2-2.3l-4.4-4.7c1.1-1.5,2.4-2.9,4-4.4,1.5-1.4,3-2.7,4.6-3.7l4.4,4.7c.6.6,1.5.8,2.3.3,2.4-1.4,4.9-2.3,7.5-2.8.9-.2,1.5-.9,1.5-1.8l.2-6.5c3.9-.5,7.9-.4,11.8.3l-.2,6.5c0,.9.6,1.7,1.4,1.9,2.6.7,5,1.7,7.3,3.2Z" fill="#414141"/>
  </g>
  <g>
    <path d="M155.6,565c-17.8,0-36.1-6.7-49-17.9-.8-.7-.9-1.9-.2-2.6l19-22.1c.7-.8,1.8-.9,2.6-.3,9.1,7,19.9,11.4,28.3,11.4,12.5,0,12.5-5.1,12.5-6.7,0-3.8-4-5.5-13.1-9-.9-.3-1.8-.7-2.7-1.1l-15.7-6.4c-16.9-6.5-26.6-19.5-26.6-35.6s21-39.7,48.8-39.7,32.1,6.3,43.2,16.8c.7.7.8,1.8.2,2.6l-16.7,20.2c-.6.7-1.7.9-2.5.4-8.9-6-15.9-8.5-24.2-8.5s-11.3.8-11.3,6.4,4.6,5.7,14.3,9.3c1,.4,2,.8,3.1,1.2l15.3,5.8c17.2,6.5,25.8,18.4,25.8,35.1s-4.8,21.2-13.5,28.6c-9.3,8-22.4,12.2-37.6,12.2ZM110.5,545.5c12.1,9.9,28.8,15.8,45.1,15.8,32.6,0,47.4-19.2,47.4-37.1s-7.7-25.6-23.4-31.6l-15.3-5.8c-1.1-.4-2.1-.8-3.1-1.2-10.1-3.7-16.7-6.2-16.7-12.8s1.5-10.1,15.1-10.1,16,2.4,24.9,8.2l14.5-17.6c-10.4-9.2-24.9-14.6-39.3-14.6-25.7,0-45.1,15.5-45.1,36s16.9,29.3,24.2,32.2l15.7,6.4c.9.4,1.8.7,2.7,1,9.4,3.6,15.5,5.9,15.5,12.5s-2.8,10.5-16.2,10.5-19.8-4.2-29.2-11.1l-16.6,19.3Z" fill="#414141"/>
    <path d="M277.5,565h-33.3c-1,0-1.9-.8-1.9-1.9v-96.4h-31.5c-1,0-1.9-.8-1.9-1.9v-28c0-1,.8-1.9,1.9-1.9h100c1,0,1.9.8,1.9,1.9v28c0,1-.8,1.9-1.9,1.9h-31.5v96.4c0,1-.8,1.9-1.9,1.9ZM246.1,561.2h29.6v-96.4c0-1,.8-1.9,1.9-1.9h31.5v-24.2h-96.2v24.2h31.5c1,0,1.9.8,1.9,1.9v96.4Z" fill="#414141"/>
    <path d="M422.9,565h-35.3c-.9,0-1.6-.6-1.8-1.5l-5.9-25.4h-32.3l-5.9,25.4c-.2.8-1,1.5-1.8,1.5h-34.1c-.6,0-1.2-.3-1.5-.8-.4-.5-.5-1.1-.3-1.7l38.4-126.2c.2-.8,1-1.3,1.8-1.3h40.3c.8,0,1.6.5,1.8,1.3l38.4,126.2c.2.6,0,1.2-.3,1.7-.4.5-.9.8-1.5.8ZM389.1,561.2h31.2l-37.2-122.5h-37.5l-37.2,122.5h30.1l5.9-25.4c.2-.8,1-1.5,1.8-1.5h35.3c.9,0,1.6.6,1.8,1.5l5.9,25.4ZM375.4,512.4h-23.2c-.6,0-1.1-.3-1.5-.7-.4-.5-.5-1-.3-1.6l2.1-8.7c2.7-10.4,5.4-23.3,7.8-34.6l1.1-5.3c.2-.9.9-1.5,1.8-1.5h.8c.9,0,1.6.6,1.8,1.4,1.4,5.7,2.8,12.1,4.2,18.2,1.7,7.5,3.4,15.2,5.1,21.7l2.1,8.8c.1.6,0,1.2-.3,1.6-.4.5-.9.7-1.5.7ZM354.6,508.6h18.5l-1.6-6.4c-1.7-6.6-3.4-14.4-5.1-21.8-.9-3.9-1.8-7.9-2.7-11.8-2.3,11.1-5,23.5-7.6,33.6l-1.6,6.4Z" fill="#414141"/>
    <path d="M540.1,565h-37.2c-.7,0-1.3-.4-1.7-1l-21.2-41.3h-9.8v40.5c0,1-.8,1.9-1.9,1.9h-33.3c-1,0-1.9-.8-1.9-1.9v-126.2c0-1,.8-1.9,1.9-1.9h47.7c34.2,0,52.2,14.8,52.2,42.7s-6.8,29.5-19.7,37.2l26.4,47.3c.3.6.3,1.3,0,1.9-.3.6-1,.9-1.6.9ZM504.1,561.2h32.9l-25.8-46.2c-.2-.4-.3-1-.2-1.4.1-.5.5-.9.9-1.1,12.7-6.9,19.4-18.9,19.4-34.9,0-25.8-16.3-38.9-48.5-38.9h-45.8v122.5h29.6v-40.5c0-1,.8-1.9,1.9-1.9h12.8c.7,0,1.3.4,1.7,1l21.2,41.3ZM480.5,496.2h-12c-1,0-1.9-.8-1.9-1.9v-31.1c0-1,.8-1.9,1.9-1.9h12c10.3,0,22,1.8,22,16.2s-7.8,18.6-22,18.6ZM470.3,492.5h10.1c12.1,0,18.3-5,18.3-14.8s-3.1-12.5-18.3-12.5h-10.1v27.3Z" fill="#414141"/>
    <path d="M610.8,565h-33.3c-1,0-1.9-.8-1.9-1.9v-96.4h-31.5c-1,0-1.9-.8-1.9-1.9v-28c0-1,.8-1.9,1.9-1.9h100c1,0,1.9.8,1.9,1.9v28c0,1-.8,1.9-1.9,1.9h-31.5v96.4c0,1-.8,1.9-1.9,1.9ZM579.3,561.2h29.6v-96.4c0-1,.8-1.9,1.9-1.9h31.5v-24.2h-96.2v24.2h31.5c1,0,1.9.8,1.9,1.9v96.4Z" fill="#414141"/>
    <path d="M714.5,565c-36.5,0-54.3-21-54.3-64v-64.1c0-1,.8-1.9,1.9-1.9h33.4c1,0,1.9.8,1.9,1.9v67.9c0,23.5,6.9,28.3,17.1,28.3s17.5-11.3,17.5-28.3v-67.9c0-1,.8-1.9,1.9-1.9h32.2c1,0,1.9.8,1.9,1.9v64.1c0,21.8-4.3,37.6-13,48.2-8.9,10.7-22.1,15.9-40.5,15.9ZM664,438.8v62.2c0,41.1,16.1,60.3,50.5,60.3s29.5-4.8,37.6-14.5c8.2-9.9,12.1-24.8,12.1-45.8v-62.2h-28.5v66c0,22.4-6.4,32-21.3,32s-20.9-9.6-20.9-32v-66h-29.6Z" fill="#414141"/>
    <path d="M826.4,565h-33.3c-1,0-1.9-.8-1.9-1.9v-126.2c0-1,.8-1.9,1.9-1.9h48.7c15.4,0,27.6,3.2,36.4,9.4,10.5,7.4,15.8,19,15.8,34.5s-5.5,27.1-16,35.2c-9.1,7.1-21.9,11-36.1,11h-13.6v38.1c0,1-.8,1.9-1.9,1.9ZM795,561.2h29.5v-38.1c0-1,.8-1.9,1.9-1.9h15.5c35.7,0,48.4-21.9,48.4-42.4,0-33.1-26.3-40.1-48.4-40.1h-46.9v122.5ZM840.3,498.6h-13.9c-1,0-1.9-.8-1.9-1.9v-33.4c0-1,.8-1.9,1.9-1.9h13.9c14.3,0,21.2,5.7,21.2,17.4s-7.5,19.7-21.2,19.7ZM828.3,494.8h12c11.6,0,17.5-5.4,17.5-16s-5.2-13.7-17.5-13.7h-12v29.7Z" fill="#414141"/>
  </g>
  <path d="M592,153c0-24.8-20.2-45-45-45s-45,20.2-45,45,20.2,45,45,45,45-20.2,45-45ZM582,174.7c-4.7-2.4-10.7-4.2-17.5-5.3.7-4.5,1.1-9.4,1.2-14.5h22.5c-.3,7.3-2.5,14.1-6.2,19.9ZM588.2,151.1h-22.5c0-5.1-.5-10-1.2-14.5,6.8-1.2,12.9-3,17.5-5.3,3.6,5.8,5.8,12.6,6.2,19.9ZM579.9,128.1c-4.3,2.1-9.8,3.7-16.1,4.8-1.8-8.9-4.8-16-8.5-20.3,10,2.1,18.6,7.7,24.5,15.5ZM532,151.1c0-5,.5-9.7,1.2-14,4.4.6,9,.9,13.8.9s9.4-.3,13.8-.9c.7,4.3,1.1,9,1.2,14h-30ZM562,154.9c0,5-.5,9.7-1.2,14-4.4-.6-9-.9-13.8-.9s-9.4.3-13.8.9c-.7-4.3-1.1-9-1.2-14h30ZM547,111.8c5,0,10.3,8.3,13.1,21.7-4.2.5-8.6.8-13.1.8s-8.9-.3-13.1-.8c2.8-13.4,8.1-21.7,13.1-21.7ZM538.6,112.6c-3.7,4.3-6.7,11.4-8.5,20.3-6.2-1-11.8-2.7-16.1-4.8,5.9-7.8,14.6-13.5,24.5-15.5ZM512,131.3c4.7,2.4,10.7,4.2,17.5,5.3-.7,4.5-1.1,9.4-1.2,14.5h-22.5c.3-7.3,2.5-14,6.2-19.9ZM505.8,154.9h22.5c0,5.1.5,10,1.2,14.5-6.8,1.2-12.9,3-17.5,5.3-3.6-5.8-5.8-12.6-6.2-19.9ZM514.1,177.9c4.3-2.1,9.8-3.7,16.1-4.8,1.8,8.8,4.8,16,8.5,20.3-9.9-2.1-18.6-7.7-24.5-15.5ZM547,194.2c-5,0-10.3-8.3-13.1-21.7,4.2-.5,8.6-.8,13.1-.8s8.9.3,13.1.8c-2.8,13.4-8.1,21.7-13.1,21.7ZM555.4,193.4c3.7-4.3,6.6-11.5,8.4-20.3,6.2,1,11.8,2.7,16.1,4.8-5.9,7.8-14.6,13.5-24.5,15.5Z" fill="#414141"/>
</svg>