<?xml version="1.0" encoding="utf-8"?>
<!-- Generator: Adobe Illustrator 27.5.0, SVG Export Plug-In . SVG Version: 6.00 Build 0)  -->
<svg version="1.1" id="Layer_1" xmlns="http://www.w3.org/2000/svg" xmlns:xlink="http://www.w3.org/1999/xlink" x="0px" y="0px"
	 viewBox="0 0 5000 4050" style="enable-background:new 0 0 5000 4050;" xml:space="preserve">
<g id="_Cloud_Startup">
	<g>
		<path d="M1109.93,1196.14h92.728l55.255,75.66c0.917,1.255,3.168,2.586,5.092,2.586c0.059,0,0.109-0.038,0.167-0.04h36.812
			c2.016,0,3.908-1.01,5.043-2.648l55.205-75.558c1.282,0,99.019,0.023,92.836,0.021c3.531,0,6.305-2.771,6.305-6.305V987.844
			c0-3.528-2.9-6.428-6.431-6.428c-344.396,0.022-341.503,0.021-343.011,0.022c-3.485,0-6.305,2.82-6.305,6.305v202.092
			C1103.625,1193.319,1106.445,1196.14,1109.93,1196.14z M1116.235,994.047h293.455v189.482h-89.595
			c-2.062,0-3.998,1.07-5.106,2.546c-0.922,1.265-55.451,76.066-51.984,71.31l-52.053-71.27c-1.188-1.625-3.079-2.586-5.092-2.586
			h-89.625V994.047z"/>
		<path d="M3432.512,641.583l116.383,48.041c0.372,1.262,33.238,112.745,31.154,105.675l74.147-62.167l53.466,22.068
			c3.911,1.118,6.367-0.186,7.692-2.396l160.147-242.994c3.286-4.656-1.275-11.193-7.062-9.457L3433.142,629.73
			C3427.432,631.443,3427.321,639.399,3432.512,641.583z M3855.451,517.375l-147.789,224.206
			c-166.587-68.778-109.131-45.057-121.56-50.188l0.505-8.449C3585.185,683.818,3602.514,673.068,3855.451,517.375z
			 M3840.571,521.788l-295.199,152.707l-91.549-37.83L3840.571,521.788z"/>
		<path d="M3193.805,961.359c7.031,10.461,16.267,20.109,27.437,28.686c2.741,2.107,6.702,1.622,8.842-1.164
			c2.118-2.758,1.601-6.718-1.157-8.836c-10.098-7.746-18.385-16.397-24.654-25.719c-1.958-2.9-5.874-3.651-8.756-1.718
			C3192.635,954.555,3191.859,958.471,3193.805,961.359z"/>
		<path d="M3572.954,827.18c-2.549,11.908-6.108,23.761-10.566,35.232c-1.268,3.245,0.345,6.896,3.583,8.158
			c3.173,1.248,6.875-0.285,8.165-3.59c4.704-12.093,8.46-24.592,11.157-37.153c0.727-3.405-1.441-6.761-4.852-7.487
			C3577.092,821.62,3573.693,823.775,3572.954,827.18z"/>
		<path d="M3546.441,895.599c-6.12,10.578-13.127,20.799-20.824,30.386c-2.179,2.715-1.749,6.681,0.961,8.866
			c2.735,2.173,6.688,1.745,8.866-0.973c8.091-10.079,15.467-20.836,21.907-31.962c1.749-3.011,0.714-6.871-2.291-8.614
			C3552.057,891.566,3548.19,892.564,3546.441,895.599z"/>
		<path d="M3314.043,1049.431c-16.318,12.305-30.141,17.165-31.402,17.782c-3.227,1.312-4.778,4.987-3.46,8.214
			c1.273,3.167,4.899,4.793,8.214,3.473c1.358-0.665,16.366-5.906,34.234-19.395c2.783-2.1,3.337-6.053,1.244-8.836
			C3320.767,1047.874,3316.802,1047.344,3314.043,1049.431z"/>
		<path d="M3213.606,858.545c8.263-8.448,18.287-15.276,28.988-19.746c3.202-1.349,4.717-5.037,3.374-8.251
			c-1.342-3.214-5.012-4.723-8.251-3.386c-12.228,5.117-23.681,12.918-33.126,22.554c-2.438,2.487-2.389,6.484,0.099,8.922
			C3207.146,861.055,3211.157,861.044,3213.606,858.545z"/>
		<path d="M3204.728,1086.559c0.012,3.479,2.832,6.293,6.305,6.293h0.012c13.423-0.025,26.451-1.133,38.729-3.288
			c3.424-0.603,5.714-3.873,5.111-7.302c-0.591-3.436-3.941-5.702-7.302-5.123c-11.563,2.038-23.865,3.079-36.562,3.103
			C3207.535,1080.248,3204.716,1083.074,3204.728,1086.559z"/>
		<path d="M3135.139,1083.179c10.929,2.614,34.238,7.081,38.199,7.081c3.103,0,5.812-2.303,6.231-5.468
			c0.468-3.454-1.958-6.625-5.406-7.087c-11.551-1.539-23.693-3.824-36.094-6.791c-3.448-0.837-6.797,1.281-7.598,4.667
			C3129.659,1078.968,3131.752,1082.366,3135.139,1083.179z"/>
		<path d="M3178.954,923.929c0.456,3.128,3.153,5.381,6.219,5.381c3.885,0,6.813-3.435,6.243-7.229
			c-1.705-11.621-0.727-22.699,3.411-34.148c1.195-3.276-0.505-6.89-3.768-8.078c-3.288-1.139-6.896,0.505-8.078,3.781
			C3178.056,897.193,3176.944,910.427,3178.954,923.929z"/>
		<path d="M3330.926,1026.317c2.66,0.105,5.32,0.172,7.968,0.197c-1.153,4.068,1.939,8.029,6.071,8.029
			c3.924,0,5.669-3.091,9.605-8.392c5.037-0.277,10.086-0.702,15.085-1.275c3.46-0.394,5.948-3.522,5.554-6.982
			c-0.394-3.467-3.571-5.979-6.982-5.542c-1.589,0.179-3.19,0.345-4.778,0.499c2.685-4.495,5.16-9.1,7.389-13.805
			c1.502-3.146,0.16-6.908-2.98-8.405c-3.128-1.472-6.908-0.154-8.398,2.986c-3.325,6.988-7.204,13.737-11.588,20.183
			c-5.505,0.16-10.96,0.117-16.452-0.092c-4.113-0.142-6.416,2.58-6.551,6.046
			C3324.732,1023.251,3327.441,1026.182,3330.926,1026.317z"/>
		<path d="M3276.841,832.716c11.526,0.505,23.028,3.337,34.16,8.417c3.091,1.432,6.885,0.087,8.349-3.122
			c1.441-3.171,0.049-6.908-3.128-8.355c-12.598-5.751-25.676-8.959-38.84-9.538c-3.473-0.449-6.416,2.549-6.576,6.022
			C3270.659,829.619,3273.356,832.562,3276.841,832.716z"/>
		<path d="M3255.106,1009.92c20.492,9.031,35.97,11.436,37.276,11.779c3.423,0.705,6.234-1.607,6.933-5.006
			c0.702-3.411-1.982-6.847-5.394-7.555c-5.393-1.425-16.193-3.027-33.742-10.757c-3.165-1.398-6.896,0.037-8.312,3.226
			C3250.464,1004.798,3251.917,1008.517,3255.106,1009.92z"/>
		<path d="M3361.577,889.639c1.591,3.155,5.42,4.33,8.472,2.783c3.103-1.57,4.359-5.363,2.783-8.472
			c-5.96-11.791-13.952-22.529-23.742-31.907c-2.512-2.42-6.49-2.309-8.916,0.191c-2.401,2.512-2.315,6.502,0.197,8.909
			C3349.127,869.536,3356.257,879.123,3361.577,889.639z"/>
		<path d="M3407.719,1017.568c12.487-3.405,24.764-7.789,36.5-13.029c3.177-1.422,4.606-5.147,3.189-8.331
			c-1.441-3.177-5.147-4.606-8.337-3.183c-11.145,4.975-22.806,9.137-34.677,12.376c-3.362,0.917-5.332,4.384-4.421,7.74
			C3400.871,1016.44,3404.277,1018.486,3407.719,1017.568z"/>
		<path d="M3509.313,953.237c-2.327-2.561-6.33-2.765-8.903-0.406c-9.113,8.306-18.878,15.904-29.05,22.572
			c-2.906,1.909-3.719,5.819-1.81,8.731c1.888,2.879,5.787,3.739,8.731,1.81c10.726-7.031,21.033-15.042,30.626-23.804
			C3511.481,959.794,3511.665,955.805,3509.313,953.237z"/>
		<path d="M3371.847,923.615c1.504,12.084,0.917,24.174-1.207,35.73c-0.709,3.866,2.259,7.444,6.219,7.444
			c2.98,0,5.628-2.124,6.194-5.166c2.369-12.913,2.96-26.444,1.305-39.572c-0.431-3.454-3.633-5.948-7.032-5.474
			C3373.867,917.008,3371.416,920.154,3371.847,923.615z"/>
		<path d="M4573.638,3344.911c1.564,0,3.14-0.579,4.359-1.749c2.512-2.414,2.598-6.404,0.197-8.916l-70.599-73.628
			c-2.414-2.5-6.403-2.611-8.916-0.197s-2.598,6.404-0.197,8.916l70.599,73.628
			C4570.326,3344.258,4571.976,3344.911,4573.638,3344.911z"/>
		<path d="M2088.571,3067.75l-444.366-232.829c-108.46-56.856-238.106-48.445-338.346,21.883c-1.02,1.262-9.069,4.261-4.452,10.824
			c4.616,6.582,10.428-0.068,11.693-0.505c96.367-67.619,221.001-75.672,325.255-21.033l444.354,232.841
			c3.17,1.627,6.922,0.365,8.521-2.66C2092.844,3073.181,2091.65,3069.375,2088.571,3067.75z"/>
		<path d="M426.368,3495.16c2.186,0,4.107-1.108,5.24-2.795c3.436-3.288,26.051-20.762,133.87-97.764
			c2.832-2.032,3.491-5.96,1.465-8.805c-2.026-2.82-5.954-3.472-8.792-1.465c-138.088,98.626-138.088,99.87-138.088,104.525
			C420.063,3492.34,422.883,3495.16,426.368,3495.16z"/>
		<path d="M3199.089,2900.876c10.371,0,18.773-8.404,18.773-18.951c0-10.37-8.402-18.772-18.773-18.772
			c-10.369,0-18.773,8.402-18.773,18.772C3180.316,2892.472,3188.72,2900.876,3199.089,2900.876z"/>
		<path d="M1363.293,3257.358c-10.368,0-18.773,8.402-18.773,18.772c0,10.548,8.405,18.95,18.773,18.95
			c10.371,0,18.773-8.403,18.773-18.95C1382.067,3265.76,1373.664,3257.358,1363.293,3257.358z"/>
		<path d="M3107.494,3123.601c-10.369,0-18.773,8.402-18.773,18.772c0,10.547,8.405,18.95,18.773,18.95
			c10.37,0,18.773-8.403,18.773-18.95C3126.266,3132.004,3117.864,3123.601,3107.494,3123.601z"/>
		<path d="M3653.038,3302.698c10.371,0,18.773-8.403,18.773-18.95c0-10.37-8.402-18.772-18.773-18.772
			c-10.369,0-18.772,8.402-18.772,18.772C3634.266,3294.295,3642.669,3302.698,3653.038,3302.698z"/>
		<path d="M3766.443,2875.958c10.37,0,18.773-8.403,18.773-18.95c0-10.37-8.402-18.772-18.773-18.772
			c-10.369,0-18.773,8.402-18.773,18.772C3747.67,2867.555,3756.075,2875.958,3766.443,2875.958z"/>
		<path d="M1571.886,3061.711c-10.369,0-18.773,8.402-18.773,18.772c0,10.547,8.405,18.95,18.773,18.95
			c10.37,0,18.773-8.403,18.773-18.95C1590.658,3070.114,1582.256,3061.711,1571.886,3061.711z"/>
		<path d="M3457.649,2702.146c14.718,0,26.628-11.945,26.628-26.664c0-14.718-11.909-26.628-26.628-26.628
			c-14.718,0-26.664,11.91-26.664,26.628C3430.986,2690.201,3442.931,2702.146,3457.649,2702.146z"/>
		<path d="M3404.358,3195.754c14.718,0,26.628-11.945,26.628-26.663c0-14.719-11.909-26.628-26.628-26.628
			c-14.718,0-26.664,11.91-26.664,26.628C3377.694,3183.809,3389.64,3195.754,3404.358,3195.754z"/>
		<path d="M4520.625,3460.194c0,9.902,8.037,17.939,17.939,17.939s17.915-8.037,17.915-17.939s-8.013-17.915-17.915-17.915
			S4520.625,3450.292,4520.625,3460.194z"/>
		<path d="M1558.008,3377.696c-14.718,0-26.663,11.91-26.663,26.628c0,14.719,11.945,26.664,26.663,26.664
			c14.719,0,26.628-11.945,26.628-26.664C1584.637,3389.606,1572.727,3377.696,1558.008,3377.696z"/>
		<path d="M4643.695,3537.324h-192.126c0.111-0.108,0.245-0.184,0.354-0.295c4.704-4.791,7.229-11.12,7.105-17.831
			c-0.174-11.051,0.695,44.104-2.059-130.654h24.947l-4.288-531.133l-46.657,47.035c-2.209,2.211-6.435,2.52-8.953,0
			c-2.522-2.522-2.522-6.431,0-8.953l52.836-53.088c0.757-0.757,1.639-1.387,2.647-1.513l-3.624-459.121
			c1.138-0.648,2.122-1.539,2.674-2.743c6.539-14.229,160.001-349.625,146.936-455.708
			c-10.886-90.511-106.569-304.752-166.836-330.132c-48.285-29.161-127.725-40.576-131.974-41.112h-1.697
			c-4.325-14.781-16.179-51.006-29.302-53.906c-8.089-1.788-18.93-3.193-31.182-4.081l-5.046-30.948
			c15.695-26.311,87.337-155.616-1.063-186.377c-115.175-40.077-171.694-7.339-182.529,7.677
			c-12.782,17.713,8.832,28.886,26.042,34.649c-10.037,43.375-22.678,118.988,3.24,146.035c6.244,6.508,23.188,4.975,34.308,3.085
			c10.353,7.565,12.552,20.784,11.545,36.353c-11.91,4.255-21.466,9.78-26.704,16.995c-3.819,5.261-1.59,21.576,0.012,30.596
			c-8.202,0.636-83.787,7.689-129.375,54.544c-1.77,1.82-3.551,3.838-5.338,5.962c-0.125,0.153-0.219,0.272-0.385,0.477
			c-48.166,57.82-101.224,221.635-114.43,263.992l-171.306-163.714c-2.116-2.028-5.228-2.177-7.617-0.707
			c-9.904-35.603-42.282-139.726-82.975-146.339c-6.184-22.839-14.59-45.291-24.979-66.998h11.182
			c7.697,0,13.964-6.262,13.964-13.965v-194.482c0-7.703-6.268-13.965-13.964-13.965h-407.349
			c-52.615-236.744-310.669-372.071-536.781-275.534c-83.963-165.009-249.827-266.652-434.398-266.652
			c-291.256,0-517.786,255.995-484.007,541.675c-106.114-4.081-216.651,37.601-296.826,122c2.464-14.014,1.349-28.502-11.817-33.958
			c-7.339-3.042-15.147-2.814-23.194,0.677c-28.406,12.311-90.046,92.48-84.907,209.395l-2.076-0.93
			c-2.992-1.318-6.527-0.142-8.103,2.728l-93.534,170.777c-51.298-73.08-122.494-119.79-222.236-137.069l5.76-53.928
			c13.38,2.592,41.672,5.572,55.926-11.81c9.277-11.316,13.071-51.277,11.034-90.534c14.534-20.428,14.999-38.861,13.223-49.943
			c32.762-31.229-33.942-45.692-3.482-64.696c28.997-18.092-4.644-77.011-49.726-53.39c-25.615,13.421-48.523,39.08-107.998,41.435
			c-59.104,2.34-122.836,76.148-29.699,216.288l-1.044,47.56c-128.495-17.041-241.858,53.426-259.034,225.552
			c-11.798,103.657-19.912,138.622,14.383,501.439c0.289,3.108,2.825,5.454,5.902,5.643l-33.672,559.956l49.431,49.683
			c2.396,2.521,2.396,6.43-0.126,8.953c-2.126,2.363-6.699,2.366-8.827,0l-41.487-41.739l-30.137,499.608h26.669
			c0.439,133.581-1.029,128.832,3.745,137.18h-50.484c2.984-3.347,4.85-7.739,4.85-12.64c0-10.37-8.402-18.772-18.773-18.772
			c-10.368,0-18.773,8.402-18.773,18.772c0,4.901,1.867,9.293,4.851,12.64H356.305c-3.485,0-6.305,2.82-6.305,6.305
			c0,3.485,2.82,6.305,6.305,6.305c979.646,0,3446.424,0,4287.39,0c3.485,0,6.305-2.82,6.305-6.305
			C4650,3540.144,4647.18,3537.324,4643.695,3537.324z M2962.035,3281.652c-30.371-118.273-155.479-178.348-263.751-138.439
			c-76.025-204.077-366.394-204.62-442.594,0c-106.373-39.231-232.843,19.023-263.738,138.439
			c-142.454-19.932-262.37,113.853-221.067,255.672h-483.51c12.274-21.405-7.749-66.177-49.067-70.5l-41.937-4.396l-88.732-53.03
			l-0.369-9.254h35.898l-27.112-582.582l-44.513,44.892c-2.338,2.338-6.248,2.706-8.953,0c-2.522-2.395-2.522-6.43,0-8.953
			l52.71-52.962l-13.114-283.472l-9.08,1.26c-39.742,6.355-78.023-25.76-76.668-68.598l3.152-96.088
			c0.126-2.522,1.891-4.792,4.539-4.287c2.396,0,4.413,2.144,4.288,4.54l-3.152,96.214c-1.325,36.277,30.783,64.783,66.58,59.519
			c1.27-0.179,11.106-1.566,9.836-1.387l-8.538-184.541c3.146-0.149,5.736-2.564,5.999-5.733l0.378-5.226
			c95.312,36.037,124.99,10.807,98.359-10.715c14.593,1.016,23.065-2.543,25.959-10.683c2.153-5.854,0.616-12.638-6.779-18.385
			c6.705-0.918,11.797-2.765,15.338-5.542c5.772-4.529,5.646-9.59,6.04-10.855c0.69-8.097-4.409-14.784-15.399-20.036
			c43.593-13.995-5.334-41.669-55.156-49.56c17.222-11.071,29.622-25.571,34.45-40.847c2.968-9.39,2.463-18.016-1.416-24.284
			c-8.055-13.009-51.319-0.554-89.837,14.459c4.576-75.102,8.238-140.203,9.454-162.09c151.454,41.529,172.452,25.11,219.479-56.276
			c0.66-1.267,12.068-18.475,33.953-67.574c67.297,128.905,202.448,211.621,348.381,211.621h375.408
			c2.193,50.244,7.934,100.29,16.802,149.81l-155.336,108.995c-1.798-21.718,6.83-54.559-17.573-90.066
			c-37.751-49.218-40.609-73.603-66.289-73.603h-0.006c-25.772,0-28.749,24.645-66.319,73.597
			c-25.741,37.408-15.134,70.267-17.61,106.926v108.158v122.522h-13.175c-24.366,0-44.225,19.86-44.225,44.223
			c0,24.469,19.859,44.228,44.225,44.228h194.199c24.363,0,44.123-19.759,44.123-44.228c0-24.362-19.759-44.223-44.123-44.223
			h-13.227v-50.572l217.071-88.438c21.858,55.293,47.993,109.036,78.513,160.493c1.133,1.915,3.189,3.091,5.418,3.091h24.796
			c0.092,0.198,0.122,0.419,0.222,0.612l54.462,107.794c2.56,5.119,7.883,8.393,13.718,8.393h239.448
			c5.836,0,11.159-3.274,13.719-8.492l54.461-107.695c0.101-0.193,0.132-0.414,0.223-0.612h7.656c2.229,0,4.285-1.176,5.418-3.091
			c30.616-51.617,56.847-105.377,78.776-160.645l216.881,88.555v50.606h-13.15c-24.363,0-44.223,19.86-44.223,44.223
			c0,24.469,19.859,44.228,44.223,44.228h126.001l-323.366,282.941c-2.623,2.291-2.894,6.268-0.591,8.891
			c2.28,2.619,6.264,2.893,8.891,0.591l334.212-292.423h48.951c24.363,0,44.223-19.759,44.223-44.228
			c0-10.749-4.019-20.49-10.433-28.168l132.011-115.505c126.297-110.516,316.223-102.21,432.385,18.952l167.242,174.422
			c2.414,2.512,6.404,2.611,8.916,0.197c2.512-2.414,2.598-6.404,0.197-8.916l-167.242-174.434
			c-120.842-126.008-318.39-134.665-449.797-19.716l-133.024,116.394c-7.019-4.69-15.432-7.449-24.478-7.449h-13.152
			c0-305.604,5.867-303.45-17.585-337.6l-41.685-60.661c-11.869-17.241-37.343-17.241-49.208-0.006l-41.721,60.661
			c-24.488,35.606-15.776,68.079-17.597,90.02l-154.976-108.773c8.865-49.502,14.408-99.601,16.531-149.98h400.078
			c146.935,0,281.886-83.074,348.945-212.882c26.254,37.735,128.984,181.51,222.438,258.507c0.033,0.033,0.06,0.065,0.093,0.098
			c0.055,0.055,0.131,0.072,0.188,0.125c34.901,28.71,68.483,48.069,96.259,49.028c20.873,0.659,38.865-7.222,61.412-27.64
			l-10.172,174.939c-0.099,1.73,0.517,3.429,1.712,4.692c1.182,1.262,2.844,1.976,4.581,1.976h5.568l0.985,529.947
			c3.18,0,0.527-0.731,56.241,54.728c2.522,2.521,2.522,6.43,0,8.953c-2.516,2.516-6.74,2.213-8.954,0l-47.287-47.539l1.009,531.637
			h41.354l1.652,16.379l-87.721,52.419l-41.697,4.36c-45.509,4.786-63.582,57.121-44.725,75.623h-650.434
			C3224.393,3395.453,3104.527,3261.927,2962.035,3281.652z M623.725,3428.135c36.528,11.107,65.128,19.719,63.626,19.307
			c1.905,0.523,4.07-0.076,5.181-0.813c1.292-0.87,41.275-27.783,38.777-26.101l89.429,53.439c0.782,0.468,1.663,0.751,2.574,0.85
			l43.31,4.544c15.97,1.677,29.106,11.403,35.967,24.827H622.34L623.725,3428.135z M867.939,3466.824l-41.931-4.396l-88.739-53.03
			l-0.368-9.254h38.685c23.278-136.894-55.166,324.422,97.349-572.493c-2.396-0.505-3.909-2.775-3.531-5.17l40.352-216.64
			c0.379-2.396,2.775-4.035,5.17-3.53c2.395,0.378,3.909,2.774,3.53,5.17l-40.352,216.639c-0.378,2.018-2.017,3.279-3.783,3.405
			l69.607,572.619h35.384l2.34,18.314c-0.756,108.776-4.735,108.14,1.399,118.866h-66.048
			C929.28,3515.919,909.257,3471.147,867.939,3466.824z M1146.757,2197.021c18.305,1.576,68.24,9.143,78.819,24.118
			c-5.612,12.687-66.584,2.171-68.259,2.161c-3.313-0.425-6.404,1.835-6.995,5.141c-0.591,3.3,1.502,6.49,4.772,7.253
			c16.392,3.831,32.436,4.414,35.132,4.486c50.479,8.573,47.016,26.65-7.683,18.943c-2.697-0.415-19.466-5.233-31.568-8.509
			c-3.239-0.905-6.607,0.911-7.66,4.095c-1.059,3.183,0.567,6.637,3.694,7.856c9.969,3.883,22.504,7.502,35.971,9.661
			c47.482,12.67,35.652,27.936-26.969,7.05l-21.464-8.232c-7.539-2.878-12.206,8.167-4.944,11.594
			c11.391,5.351,21.932,8.848,25.934,10.098c1.279,0.666,30.093,13.288,38.384,22.474c-31.717,16.071-127.492-29.236-159.182-45.493
			c0.343-1.27,28.065-103.76,26.303-97.244c33.808-18.811,117.342-50.565,129.148-44c1.89,3.048,1.933,8.097,0.117,13.848
			c-4.088,12.943-18.188,30.934-45.489,42.626C1138.796,2187.525,1140.262,2196.465,1146.757,2197.021z M992.705,3504.187
			l1.389-76.052c36.528,11.108,65.122,19.719,63.621,19.307c1.861,0.512,3.918,0.021,5.181-0.813
			c1.292-0.869,41.281-27.783,38.783-26.101c94.472,56.205,89.33,54.001,91.996,54.289l43.316,4.544
			c15.97,1.677,29.106,11.403,35.967,24.827H992.705z M1095.035,3409.76c-1.292,0.87-39.058,26.31-36.689,24.714
			c-1.27-0.386-68.626-20.887-64.433-19.611l-1.88-14.719h102.619L1095.035,3409.76z M1101.177,2893.979l-26.354,26.608
			c-2.288,2.287-6.52,2.434-8.953,0c-2.396-2.522-2.522-6.431,0-8.953l26.355-26.481c2.521-2.522,6.557-2.522,8.953-0.126
			C1103.699,2887.549,1103.699,2891.584,1101.177,2893.979z M867.01,2483.398c1.262-0.581,28.499-1.288,28.499-28.498
			c0-2.065,0-84.611,0-81.334c0-2.522,1.892-4.414,4.414-4.414c2.396,0,4.413,1.892,4.413,4.414v81.334
			c0,20.554-16.771,37.325-37.326,37.325c-2.396,0-4.413-2.017-4.413-4.413C862.596,2485.29,864.614,2483.398,867.01,2483.398z
			 M2263.818,2580.277c-55.565-94.349-95.937-193.281-121.807-294.107h644.087c-25.936,102.617-66.394,201.755-120.768,294.107
			H2263.818z M2248.967,1475.359h430.669c108.257,194.823,155.953,415.52,135.821,638.705h-703.235
			C2093.119,1906.737,2137.013,1676.629,2248.967,1475.359z M1946.61,2439.486h-142.577v-95.548h142.577V2439.486z
			 M1946.61,2331.328h-142.577c2.183-32.348-7.029-60.902,15.393-93.479c41.263-56.042,40.476-68.13,55.926-68.13c0,0,0,0,0.006,0
			c15.526,0,15.164,12.777,55.895,68.136C1953.701,2270.521,1944.443,2299.12,1946.61,2331.328z M1804.034,2568.312v-116.217
			h142.577v116.217H1804.034z M2982.612,2568.312v-116.217h142.576v116.217H2982.612z M3125.189,2439.486h-142.576v-95.548h142.576
			V2439.486z M3125.189,2331.328h-142.576c2.154-31.928-7.078-60.822,15.381-93.479l41.721-60.661
			c6.527-9.494,21.895-9.488,28.422,0.006l41.684,60.661C3132.255,2270.531,3123.035,2299.41,3125.189,2331.328z M4376.25,3441.69
			c1.12,0.744,3.27,1.336,5.165,0.814c2.29-0.63,64.524-19.584,63.254-19.198l1.334,73.319h-277.468
			c7.107-12.161,19.632-20.815,34.586-22.388l43.076-4.507c0.911-0.098,1.798-0.382,2.586-0.85l88.927-53.137
			C4339.002,3416.613,4378.748,3443.372,4376.25,3441.69z M3844.973,3496.626c7.108-12.161,19.632-20.815,34.586-22.388
			l43.076-4.507c0.911-0.098,1.798-0.382,2.586-0.85l88.921-53.134c1.292,0.87,41.032,27.625,38.534,25.943
			c1.115,0.746,3.281,1.336,5.19,0.813c0.055-0.015,0.112,0.005,0.167-0.012c1.27-0.386,67.268-20.459,63.074-19.184l1.334,73.319
			H3844.973z M4016.607,2962.578c-2.738,2.465-6.559,2.268-8.953-0.125l-26.354-26.481c-2.522-2.522-2.522-6.431,0-8.952
			c2.396-2.396,6.431-2.396,8.953,0l26.355,26.607C4019.003,2956.021,4019.003,2960.056,4016.607,2962.578z M4120.725,3410.22
			c-1.27,0.386-67.686,20.592-63.493,19.316c-1.291-0.87-39.302-26.471-36.933-24.876l-1.624-16.116h102.119L4120.725,3410.22z
			 M4133.407,3388.543h42.338l53.719-657.863c-3.026-0.126-5.548-2.648-5.801-5.801l-8.953-142.24
			c-0.252-3.531,2.396-6.557,5.926-6.684c3.783-0.252,6.431,2.396,6.684,5.801l8.953,142.366c0.252,3.405-2.27,6.305-5.8,6.684
			l58.132,657.737h40.978l1.651,16.372l-87.732,52.426l-41.697,4.36c-45.509,4.786-63.582,57.121-44.726,75.623h-29.086
			C4137.174,3528.325,4133.479,3389.812,4133.407,3388.543z M4444.287,3410.22c-1.27,0.386-67.686,20.592-63.493,19.316
			c-1.292-0.87-39.289-26.463-36.92-24.867l-1.625-16.125h102.106L4444.287,3410.22z M4425.296,2953.625l26.355-26.607
			c2.522-2.396,6.557-2.396,8.953,0c2.521,2.521,2.521,6.43,0,8.952l-26.355,26.481c-2.377,2.377-6.196,2.607-8.954,0.125
			C4422.9,2960.056,4422.9,2956.021,4425.296,2953.625z M4142.103,1456.177c-0.985-0.61-2.13-0.924-3.275-0.924
			c-0.382,0-0.776,0.037-1.158,0.105c-10.898,2.038-23.126,2.432-25.429,1.041c-20.1-20.975-10.39-88.333-0.134-133.789
			c3.501,0.85,5.738,1.263,5.738,1.263s-13.14,24.973,3.941,34.88l-4.504,58.349l10.995,3.611c0,0,12.541-38.871,33.479-31.897
			c26.229,8.736,18.447,65.593,18.447,65.593c23.976,11.592,40.959,16.687,65.41,14.511l3.991,24.473
			c-28.419-1.078-61.703,0.719-87.803,7.281C4162.183,1483.325,4158.357,1466.077,4142.103,1456.177z M3697.232,1726.806
			l172.267,164.632v67.859c0,3.485,2.82,6.305,6.305,6.305c3.485,0,6.305-2.82,6.305-6.305v-69.631
			c3.356-11.001,37.46-121.609,75.677-202.163c-0.402,10.322,0.752,21.139,4.44,32.143c0.874,2.641,3.337,4.304,5.972,4.304
			c0.665,0,1.343-0.105,2.007-0.326c3.3-1.108,5.073-4.68,3.965-7.98c-15.647-46.696,21.125-92.496,23.387-95.249
			c1.475-1.733,2.947-3.405,4.406-4.904c43.79-45.009,121.223-50.766,121.581-50.803l200.257-0.062
			c0.8,0.111,80.955,11.619,126.962,39.745c0.431,0.265,0.911,0.474,1.416,0.622c52.497,22.991,147.49,225.939,158.795,319.849
			c10.898,88.554-104.526,356.121-137.312,429.854l-0.422-53.549c0.057,0.011,0.099,0.051,0.157,0.061
			c0.357,0.055,0.714,0.086,1.071,0.086c3.017,0,5.677-2.174,6.207-5.252c10.566-62.317,62.053-382.739,37.017-570.947
			c-0.48-3.46-3.719-5.892-7.093-5.418c-3.448,0.462-5.874,3.627-5.418,7.081c9.875,74.215,7.682,169.4,0.822,261.02
			c-13.127-66.559-45.265-93.332-47.223-94.904c-2.734-2.186-6.662-1.742-8.842,0.954c-2.192,2.697-1.773,6.662,0.924,8.86
			c0.64,0.523,63.801,53.925,44.221,199.716c-0.006,0.045,0.014,0.084,0.008,0.129c-4.414,38.863-9.139,74.675-13.466,105.018
			h-441.266c-3.485,0-6.305,2.82-6.305,6.305c0,3.485,2.82,6.305,6.305,6.305h439.449c-4.994,34.206-9.262,60.173-11.572,73.776
			c-0.233,1.381,0.103,2.683,0.69,3.844h-505.127l10.547-181.488c70.222-72.29,141.111-204.392,141.832-205.73
			c1.638-3.072,0.48-6.89-2.598-8.528c-3.054-1.613-6.896-0.493-8.534,2.592c-0.701,1.328-71.685,133.633-141.114,204.308
			c-0.066,0.062-0.167,0.059-0.231,0.124c-25.528,26.002-43.63,35.767-63.715,35.195c-24.848-0.859-55.442-18.555-87.699-45.074
			c-0.106-0.124-0.146-0.279-0.263-0.397c-72.495-72.581-68.899-130.059-68.838-130.853c0.295-3.46-2.254-6.514-5.714-6.822
			c-3.51-0.369-6.539,2.241-6.847,5.72c-0.164,1.795-2.304,32.358,22.939,77.056c-77.345-80.801-150.43-184.42-165.811-206.592
			L3697.232,1726.806z M3683.501,1722.687l-102.471,101.032c-21.917-4.771-42.467-17.547-59.697-32.077
			c-13.958-11.78-33.203-32.008-38.1-48.8c-0.937-3.239-1.958-9.466,1.168-10.76c0.015-0.006,0.047-0.014,0.063-0.02
			c4.951-1.935,15.974,2.428,21.069,4.866c2.935,1.417,6.413,0.303,8.103-2.352c1.699-2.684,1.133-6.213-1.33-8.232
			c-8.591-7.077-31.56-26.112-32.569-37.186c-0.265-3.231,1.902-5.052,4.567-5.227c13.315-0.892,40.555,22.229,50.303,31.539
			c5.972,5.709,14.614-3.159,8.842-8.99c-11.77-11.91-55.691-45.868-45.525-57.363c1.228-1.388,5.036-2.551,11.718-1.191
			c13.98,2.777,35.478,15.596,43.437,24.764c2.303,2.623,6.268,2.906,8.891,0.628c2.635-2.278,2.918-6.256,0.64-8.885
			c-17.186-19.907-94.72-95.104-96.962-116.933c-0.544-5.871,8.484-14.192,25.466-6.13c34.661,16.479,81.229,82.868,113.218,124.27
			c2.203,2.705,6.175,3.088,8.866,0.893c2.697-2.204,3.091-6.176,0.886-8.873l-23.503-28.743c-2.181-9.555-5.3-32.954,2.913-44.103
			C3613.926,1557.121,3657.003,1621.682,3683.501,1722.687z M3598.433,1290.924v194.482c0,0.745-0.604,1.355-1.354,1.355
			c-97.743-0.012-437.084-0.053-452.827-0.055c-0.688,0-1.343-0.577-1.343-1.299v-194.482c0-0.748,0.628-1.312,1.343-1.312
			c75.627-0.007,434.732-0.041,452.827-0.043C3597.829,1289.569,3598.433,1290.179,3598.433,1290.924z M1736.275,1289.304
			c3.275,23.644,8.208,46.996,14.911,69.861c0.984,3.359,4.505,5.248,7.826,4.279c3.343-0.985,5.258-4.482,4.279-7.826
			c-88.564-301.934,138.11-608.235,455.259-608.235c231.453,0,417.015,162.485,463.257,371.397c0.729,3.285,3.966,5.546,7.524,4.797
			c3.399-0.751,5.542-4.119,4.79-7.518c-7.916-35.734-19.892-70.255-35.573-103.188c214.154-90.97,464.399,31.79,518.069,264.089
			h-32.354c-6.563,0-14.014,5.985-14.014,13.915v194.568c0,7.562,6.273,13.928,14.014,13.928h427.768
			c10.886,21.903,19.645,44.665,26.093,67.816c-17.524,4.923-22.642,22.485-22.583,40.608
			c-22.26-29.998-64.644-81.087-96.153-82.508c-9.275-0.402-17.442,3.768-22.917,10.547
			c-13.566,16.835,18.205,54.246,63.571,101.916c-31.458-10.643-45.972,10.025-29.078,34.245
			c-18.321-4.066-40.022,13.167-5.825,47.109c-53.665,5.09,31.049,100.476,88.432,115.958
			c-14.588,59.347-144.182,214.303-341.937,214.303h-399.556c9.919-321.573-117.413-620.842-340.456-842.973
			c-15.095-15.027-39.496-14.65-54.196,0.068c-237.352,236.45-349.677,539.326-340.285,842.905h-374.796
			c-144.621,0-278.516-83.787-341.956-213.708c39.087-91.242,67.176-188.994,69.216-196.16c1.946-6.813-6.063-8.28-7.327-9.217
			c29.695-42.719,56.05-104.689,13.17-133.819c-1.291-17.691-26.766-28.398-44.239-31.737c7.684-14.606,13.95-28.269,17.647-37.442
			C1507.51,1331.893,1624.881,1283.721,1736.275,1289.304z M1407.718,1376.737c4.43-1.916,8.877-2.448,13.355-0.597
			c17.917,7.427-14.149,69.8-23.3,86.947c-21.489-1.211-41.537,4.562-57.211,16.217
			C1353.701,1445.981,1382.043,1387.869,1407.718,1376.737z M1333.973,1501.833c1.261-0.364,73.342-58.5,108.367-7.272
			c0.006,0.012,0.462,0.862,0.566,3.239v2.235c-0.746,29.593-39.405,25.226-58.124,31.691c-4.868,0.982-6.74,6.989-3.263,10.572
			c0.185,0.185,18.262,19.408,0.092,53.408c-1.644,3.072-0.48,6.896,2.586,8.534c3.079,1.632,6.896,0.486,8.534-2.586
			c15.024-28.108,9.439-48.624,3.787-59.448c13.803-4.887,48.114-1.473,57.409-32.003c29.45,19.633-2.865,85.75-23.269,114.67
			c-0.031,0.044-0.056,0.079-0.087,0.122c-1.298-0.581-106.416-47.583-99.882-44.661
			C1328.927,1548.727,1330.065,1522.052,1333.973,1501.833z M1043.783,1536.332c0,0.006,0,0.006,0,0.006
			c-10.27,12.531-59.329,18.479-72.922-16.098c-2.212-5.808-10.947-5.388-12.105,1.262c-0.122,1.223-4.753,31.522,23.94,55.543
			l-3.845,35.983l-28.743,46.947c-1.073-1.297-55.147-66.689-51.788-62.627l1.412-64.391c7.673-10.267,16.298-24.93,15.286-38.577
			c-1.783-24.036-8.783-77.963,13.568-67.794c22.352,10.169,34.152,72.097,44.739,6.966c3.854-23.709,42.332-18.566,42.332-18.566
			s15.23,4.334,32.343,2.138C1055.868,1463.016,1052.199,1526.075,1043.783,1536.332z M887.142,1603.692
			c1.047,1.266,61.307,74.084,57.466,69.443l-2.32,416.928c-0.018,3.485,2.789,6.323,6.268,6.342c0.012,0,0.025,0,0.037,0
			c3.466,0,6.286-2.802,6.305-6.268l2.324-417.496l30.825-50.45c99.585,17.332,171.03,65.213,220.181,138.842l-3.015,47.417
			c-0.231,3.619,2.642,6.705,6.299,6.705c3.3,0,6.071-2.568,6.286-5.905l3.068-48.244l95.017-173.484
			c67.535,30.238,107.156,47.979,120.066,53.759c-18.583,62.915-46.322,142.532-73.525,203.989
			c2.357-27.528-0.313-50.005-0.528-51.708c-0.437-3.448-3.583-5.868-7.044-5.461c-3.454,0.437-5.905,3.59-5.468,7.044
			c3.974,31.614,0.934,78.936-16.728,110.722c-42.939,73.489-52.096,101.32-216.048,54.141l-55.838-24.528
			c-3.189-1.41-6.915,0.049-8.306,3.233c-1.404,3.189,0.043,6.908,3.233,8.312l52.438,23.034
			c-0.988,17.814-4.965,88.953-9.984,171.066c-12.357,5.141-23.368,10.169-32.652,14.81l0.523-1.935
			c0.85-3.159-0.856-6.447-3.928-7.567l-139.692-50.919c2.531-2.823,4.175-6.478,4.175-10.566c0-21.043-31.62-21.027-31.62,0
			c0,0.215,0.113,0.394,0.122,0.606l-68.289-24.892v-90.345c0-3.485-2.82-6.305-6.305-6.305s-6.305,2.82-6.305,6.305v92.148
			l-20.737,20.732c-2.463,2.463-2.463,6.453,0,8.916c2.463,2.463,6.453,2.463,8.916,0l19.742-19.737l230.235,83.92
			c-0.597,2.208-33.217,122.862-32.461,120.066c-19.354-2.942-86.79-13.701-158.932-30.949
			c-56.17-17.403-61.137-71.128-61.33-73.607c-0.271-3.472-3.368-6.139-6.755-5.812c-3.466,0.259-6.071,3.27-5.818,6.736
			c0.038,0.513,3.063,35.159,30.179,61.498c-69.583-19.071-135.469-43.91-158.969-73.393
			c-36.199-45.415-23.29-295.77-19.204-339.378c5.811-52.791,1.127-32.881,10.59-5.907c0.911,2.598,3.343,4.218,5.948,4.218
			c4.321,0,7.39-4.273,5.948-8.392c-29.223-83.307,17.822-146.594,84.083-153.623c3.454-0.363,5.973-3.466,5.609-6.927
			c-0.363-3.46-3.467-5.905-6.915-5.615c-0.379,0.04-16.953,1.951-36.824,10.819
			C757.217,1611.003,822.946,1594.354,887.142,1603.692z M641.276,2157.698c2.214,3.998,4.537,7.766,7.109,10.993
			c52.394,65.727,292.693,109.258,375.227,120.977c6.979,0.997,7.073-6.212,7.756-7.483c11.123,5.733,31.998,16.044,55.858,25.74
			l-0.231,3.219H925.679c-4.536-15.193-25.284-15.201-29.823,0H653.206C649.977,2276.487,645.241,2221.233,641.276,2157.698z
			 M646.587,2510.636c-2.396-0.379-4.035-2.648-3.657-5.044c0.378-2.396,2.521-4.035,4.917-3.656l52.962,7.692
			c36,5.333,67.886-23.745,66.581-59.519l-3.153-96.214c-0.126-2.396,1.765-4.54,4.287-4.54c2.396-0.252,4.414,1.765,4.54,4.287
			l3.153,96.214c1.351,42.434-36.49,74.897-76.669,68.472L646.587,2510.636z M624.141,2964.848c2.522-2.396,6.431-2.396,8.953,0
			l26.355,26.607c2.521,2.396,2.521,6.431,0,8.953c-2.755,2.479-6.574,2.254-8.953-0.125l-26.355-26.481
			C621.62,2971.279,621.62,2967.369,624.141,2964.848z M724.283,3400.144l0.383,9.616c-1.291,0.87-39.051,26.309-36.683,24.714
			c-1.27-0.386-68.632-20.887-64.439-19.611l-1.88-14.719H724.283z M1783.881,3537.324
			c-42.18-135.302,74.902-266.151,211.753-242.336c3.276,0.554,6.465-1.552,7.216-4.815
			c34.238-149.804,227.58-201.146,321.025-73.788c2.097,2.845,6.059,3.385,8.817,1.354c2.808-2.069,3.411-6.009,1.355-8.817
			c-17.958-24.463-41.381-43.969-67.896-57.349c70.541-200.699,354.375-197.416,422.404,1.897c1.148,3.346,4.878,5.205,8.349,3.805
			c102.558-41.787,223.273,14.48,252.589,126.888c-46.933,9.693-88.87,35.67-118.645,74.884c-2.106,2.783-1.564,6.736,1.207,8.842
			c2.805,2.111,6.736,1.545,8.842-1.207c125.955-165.933,391.729-29.889,329.19,170.641H1783.881z"/>
		<path d="M2464.569,2012.794c114.625,0,207.561-92.936,207.561-207.434c0-114.625-92.936-207.434-207.561-207.434
			c-114.625,0-207.435,92.809-207.435,207.434C2257.135,1919.858,2349.945,2012.794,2464.569,2012.794z M2464.569,1701.075
			c57.628,0,104.285,46.657,104.285,104.285c0,57.628-46.657,104.284-104.285,104.284s-104.284-46.656-104.284-104.284
			C2360.285,1747.732,2406.941,1701.075,2464.569,1701.075z"/>
		<path d="M2590.841,2912.317c3.485,0,6.305-2.82,6.305-6.305v-50.44c0-3.485-2.82-6.305-6.305-6.305s-6.305,2.82-6.305,6.305v50.44
			C2584.536,2909.497,2587.356,2912.317,2590.841,2912.317z"/>
		<path d="M2597.17,2956.267c-0.098-3.485-2.845-5.972-6.49-6.12c-3.485,0.099-6.219,3.005-6.12,6.49
			c0.554,19.013,10.233,36.845,25.885,47.719c2.892,1.982,6.786,1.262,8.78-1.589c1.983-2.857,1.268-6.785-1.589-8.78
			C2605.261,2985.403,2597.601,2971.303,2597.17,2956.267z"/>
		<path d="M2590.841,2811.437c3.485,0,6.305-2.82,6.305-6.305v-50.44c0-3.485-2.82-6.305-6.305-6.305s-6.305,2.82-6.305,6.305v50.44
			C2584.536,2808.617,2587.356,2811.437,2590.841,2811.437z"/>
		<path d="M2698.05,2965.072c-3.313-1.047-6.859,0.788-7.906,4.113c-4.544,14.359-15.75,25.848-29.998,30.725
			c-3.288,1.121-5.049,4.704-3.916,8.004c1.117,3.29,4.718,5.051,8.004,3.916c18.016-6.157,32.19-20.676,37.928-38.852
			C2703.21,2969.653,2701.375,2966.119,2698.05,2965.072z"/>
		<path d="M2512.865,2849.267c-3.485,0-6.305,2.82-6.305,6.305v50.44c0,3.485,2.82,6.305,6.305,6.305
			c3.485,0,6.305-2.82,6.305-6.305v-50.44C2519.17,2852.087,2516.351,2849.267,2512.865,2849.267z"/>
		<path d="M2512.865,2748.387c-3.485,0-6.305,2.82-6.305,6.305v50.44c0,3.485,2.82,6.305,6.305,6.305
			c3.485,0,6.305-2.82,6.305-6.305v-50.44C2519.17,2751.207,2516.351,2748.387,2512.865,2748.387z"/>
		<path d="M2363.294,2950.147c-3.571,0.16-6.391,2.648-6.49,6.12c-0.431,15.036-8.091,29.136-20.467,37.719
			c-2.857,1.995-3.571,5.923-1.588,8.78c1.993,2.851,5.888,3.571,8.78,1.589c15.652-10.874,25.331-28.705,25.885-47.719
			C2369.513,2953.152,2366.779,2950.246,2363.294,2950.147z"/>
		<path d="M2363.134,2849.267c-3.485,0-6.305,2.82-6.305,6.305v50.44c0,3.485,2.82,6.305,6.305,6.305
			c3.485,0,6.305-2.82,6.305-6.305v-50.44C2369.439,2852.087,2366.619,2849.267,2363.134,2849.267z"/>
		<path d="M2363.134,2748.387c-3.485,0-6.305,2.82-6.305,6.305v50.44c0,3.485,2.82,6.305,6.305,6.305
			c3.485,0,6.305-2.82,6.305-6.305v-50.44C2369.439,2751.207,2366.619,2748.387,2363.134,2748.387z"/>
		<path d="M2293.829,2999.91c-14.248-4.876-25.454-16.366-29.998-30.725c-1.047-3.325-4.569-5.147-7.906-4.113
			c-3.325,1.047-5.16,4.581-4.113,7.906c5.739,18.176,19.912,32.695,37.928,38.852c3.284,1.134,6.886-0.623,8.004-3.916
			C2298.877,3004.614,2297.116,3001.03,2293.829,2999.91z"/>
		<path d="M2441.109,2849.267c-3.485,0-6.305,2.82-6.305,6.305v50.44c0,3.485,2.82,6.305,6.305,6.305
			c3.485,0,6.305-2.82,6.305-6.305v-50.44C2447.414,2852.087,2444.594,2849.267,2441.109,2849.267z"/>
		<path d="M2441.109,2748.387c-3.485,0-6.305,2.82-6.305,6.305v50.44c0,3.485,2.82,6.305,6.305,6.305
			c3.485,0,6.305-2.82,6.305-6.305v-50.44C2447.414,2751.207,2444.594,2748.387,2441.109,2748.387z"/>
		<path d="M3168.068,1388.165c0,40.496,32.941,73.443,73.443,73.443h258.32c40.502,0,73.443-32.947,73.443-73.443
			c0-40.496-32.941-73.443-73.443-73.443h-258.32C3201.009,1314.721,3168.068,1347.669,3168.068,1388.165z M3241.511,1327.331
			h258.32c33.544,0,60.833,27.289,60.833,60.833c0,33.545-27.289,60.833-60.833,60.833h-258.32
			c-33.544,0-60.833-27.289-60.833-60.833C3180.678,1354.62,3207.967,1327.331,3241.511,1327.331z"/>
		<path d="M3246.261,1434.276c25.447,0,46.138-20.688,46.138-46.136c0-25.448-20.691-46.05-46.138-46.05
			c-25.446,0-46.05,20.602-46.05,46.05C3200.211,1413.588,3220.815,1434.276,3246.261,1434.276z"/>
		<path d="M1042.072,1965.891l18.41,7.783c3.192,1.35,6.901-0.131,8.263-3.349c1.354-3.208-0.142-6.908-3.35-8.263l-18.41-7.783
			c-3.208-1.367-6.908,0.154-8.263,3.349C1037.368,1960.835,1038.864,1964.536,1042.072,1965.891z"/>
		<path d="M782.951,2074.011l11.846-10.547c2.598-2.315,2.832-6.305,0.517-8.903c-2.334-2.617-6.317-2.838-8.903-0.517
			l-11.846,10.547c-2.598,2.315-2.832,6.305-0.517,8.903C776.407,2076.133,780.396,2076.292,782.951,2074.011z"/>
		<path d="M1180.985,1812.206c3.448,0.265,6.501-2.324,6.76-5.813l1.644-21.907c0.259-3.473-2.34-6.502-5.812-6.761
			c-3.442-0.252-6.508,2.34-6.761,5.812l-1.644,21.907C1174.914,1808.918,1177.512,1811.948,1180.985,1812.206z"/>
		<path d="M910.768,1754.833c8.753,0,15.81-7.149,15.81-15.902c0-8.753-7.057-15.898-15.81-15.898
			c-8.753,0-15.81,7.145-15.81,15.898C894.958,1747.684,902.015,1754.833,910.768,1754.833z"/>
		<path d="M910.768,1870.172c8.753,0,15.81-7.149,15.81-15.902c0-8.754-7.057-15.898-15.81-15.898
			c-8.753,0-15.81,7.144-15.81,15.898C894.958,1863.023,902.015,1870.172,910.768,1870.172z"/>
		<path d="M910.768,1985.511c8.753,0,15.81-7.149,15.81-15.902c0-8.754-7.057-15.898-15.81-15.898
			c-8.753,0-15.81,7.144-15.81,15.898C894.958,1978.363,902.015,1985.511,910.768,1985.511z"/>
		<path d="M3844.869,1960.134c3.485,0,6.305-2.82,6.305-6.305v-29.813c0-3.485-2.82-6.305-6.305-6.305
			c-3.485,0-6.305,2.82-6.305,6.305v29.813C3838.564,1957.314,3841.385,1960.134,3844.869,1960.134z"/>
		<path d="M4110.541,1988.488c0.998,0.579,2.082,0.856,3.165,0.856c2.167,0,4.286-1.121,5.455-3.134l25.664-44.116
			c1.749-3.011,0.727-6.871-2.291-8.62c-3.005-1.749-6.872-0.745-8.62,2.278l-25.664,44.117
			C4106.502,1982.878,4107.524,1986.739,4110.541,1988.488z"/>
		<path d="M1991.346,3119.414c-9.902,0-17.939,8.013-17.939,17.915s8.037,17.939,17.939,17.939s17.915-8.037,17.915-17.939
			S2001.248,3119.414,1991.346,3119.414z"/>
		<path d="M1951.044,1029.556c65.866-65.917,172.643-65.938,238.568,0.012c2.463,2.463,6.453,2.463,8.916,0s2.463-6.453,0-8.916
			c-70.948-70.961-185.697-70.778-256.399-0.012c-2.463,2.463-2.463,6.459,0,8.916
			C1944.591,1032.019,1948.581,1032.019,1951.044,1029.556z"/>
		<path d="M1973.111,1051.636c-2.463,2.463-2.463,6.453,0,8.916s6.453,2.463,8.916,0c48.797-48.796,127.789-48.794,176.589,0.006
			c2.463,2.463,6.453,2.463,8.916,0c2.463-2.463,2.463-6.453,0-8.916C2113.809,997.932,2026.842,997.892,1973.111,1051.636z"/>
		<path d="M2004.107,1082.631c-2.463,2.463-2.463,6.453,0,8.916c2.463,2.463,6.453,2.463,8.916,0
			c31.67-31.67,82.911-31.675,114.586,0c2.463,2.463,6.453,2.463,8.916,0c2.463-2.463,2.463-6.453,0-8.916
			C2099.938,1046.032,2040.7,1046.025,2004.107,1082.631z"/>
		<path d="M2044.478,1108.396c-14.125,14.248-14.125,37.454,0,51.573c14.324,14.333,37.407,14.301,51.699,0
			c14.125-14.119,14.125-37.325-0.126-51.573C2082.308,1094.653,2058.347,1094.653,2044.478,1108.396z"/>
		<path d="M1169.979,1077.134h185.994c7.302,0,13.223-5.919,13.223-13.222s-5.92-13.223-13.223-13.223h-185.994
			c-7.302,0-13.222,5.92-13.222,13.223S1162.677,1077.134,1169.979,1077.134z"/>
		<path d="M1369.196,1119.397c0-7.303-5.92-13.222-13.223-13.222h-185.994c-7.302,0-13.222,5.919-13.222,13.222
			c0,7.302,5.919,13.222,13.222,13.222h185.994C1363.275,1132.619,1369.196,1126.7,1369.196,1119.397z"/>
		<path d="M1035.748,1486.816c-8.212-11.409-7.693-27.183-7.266-40.909l0.006-0.086c0.105-3.485-2.629-6.348-6.114-6.453
			c-3.306-0.449-6.391,2.672-6.496,6.151c-1.022,32.639,3.061,36.07,10.27,49.535c-4.665-0.504-7.297,2.19-7.69,5.431
			c-0.762,6.391,6.406,8.172,12.265,7.007C1038.585,1505.955,1044.003,1498.076,1035.748,1486.816z"/>
		<path d="M4372.556,1220.984c22.031,11.188,42.965,24.949,62.237,40.915c1.182,0.973,2.61,1.447,4.027,1.447
			c1.81,0,3.608-0.776,4.852-2.284c2.229-2.678,1.847-6.656-0.825-8.879c-19.999-16.557-41.722-30.835-64.577-42.442
			c-3.079-1.558-6.896-0.345-8.472,2.764C4368.208,1215.615,4369.453,1219.408,4372.556,1220.984z"/>
		<path d="M4109.308,829.441c14.719,0,26.664-11.945,26.664-26.663c0-14.719-11.945-26.629-26.664-26.629
			c-14.718,0-26.627,11.91-26.627,26.629C4082.681,817.496,4094.59,829.441,4109.308,829.441z"/>
		<path d="M1624.246,1159.265c14.718,0,26.628-11.945,26.628-26.664c0-14.718-11.91-26.628-26.628-26.628
			c-14.718,0-26.664,11.91-26.664,26.628C1597.582,1147.32,1609.528,1159.265,1624.246,1159.265z"/>
		<path d="M677.219,1406.482c19.303-15.978,40.244-29.745,62.243-40.915c3.103-1.576,4.341-5.369,2.765-8.479
			c-1.582-3.097-5.381-4.341-8.479-2.765c-22.825,11.594-44.554,25.873-64.571,42.442c-2.684,2.223-3.054,6.194-0.837,8.879
			C670.567,1408.331,674.541,1408.698,677.219,1406.482z"/>
		<path d="M1175.4,907.483l19.137-17.179c2.592-2.327,2.808-6.311,0.48-8.903c-2.34-2.598-6.323-2.814-8.903-0.48l-19.137,17.179
			c-2.592,2.327-2.808,6.311-0.48,8.903C1168.833,909.605,1172.834,909.799,1175.4,907.483z"/>
		<path d="M3465.893,2210.369c-3.091-1.564-6.908-0.339-8.472,2.765c-1.589,3.109-0.345,6.902,2.759,8.479
			c21.993,11.169,42.94,24.937,62.249,40.915c2.658,2.21,6.646,1.856,8.866-0.837c2.229-2.685,1.847-6.656-0.837-8.879
			C3510.434,2236.242,3488.711,2221.963,3465.893,2210.369z"/>
		<path d="M2902.655,577.788l19.137-17.179c2.586-2.328,2.808-6.311,0.48-8.903c-2.327-2.598-6.317-2.82-8.903-0.48l-19.137,17.179
			c-2.586,2.327-2.808,6.311-0.48,8.903C2896.075,579.897,2900.062,580.117,2902.655,577.788z"/>
		<path d="M2707.101,849.808c19.309-15.978,40.256-29.746,62.249-40.915c3.104-1.576,4.347-5.369,2.759-8.478
			c-1.564-3.097-5.381-4.31-8.472-2.765c-22.819,11.594-44.541,25.873-64.564,42.442c-2.685,2.223-3.066,6.194-0.837,8.879
			C2700.452,851.66,2704.44,852.021,2707.101,849.808z"/>
		<path d="M3449.507,1156.714c0,14.718,11.946,26.663,26.664,26.663s26.628-11.945,26.628-26.663
			c0-14.719-11.91-26.628-26.628-26.628S3449.507,1141.995,3449.507,1156.714z"/>
		<path d="M4506.066,1551.962c14.718,0,26.664-11.946,26.664-26.664s-11.946-26.628-26.664-26.628
			c-14.718,0-26.628,11.91-26.628,26.628S4491.349,1551.962,4506.066,1551.962z"/>
		<path d="M3791.375,1283.492c-2.327,2.592-2.106,6.582,0.48,8.903l19.124,17.172c2.589,2.325,6.575,2.113,8.904-0.48
			c2.327-2.592,2.106-6.576-0.48-8.903l-19.125-17.172C3797.705,1280.697,3793.703,1280.9,3791.375,1283.492z"/>
		<path d="M1383.268,2091.757l19.13-17.179c2.592-2.327,2.808-6.317,0.48-8.903c-2.34-2.592-6.336-2.808-8.903-0.48l-19.13,17.178
			c-2.592,2.327-2.808,6.311-0.48,8.904C1376.689,2093.865,1380.675,2094.085,1383.268,2091.757z"/>
		<path d="M1617.08,2529.573c14.718,0,26.628-11.946,26.628-26.664c0-14.718-11.91-26.628-26.628-26.628
			c-14.718,0-26.663,11.909-26.663,26.628C1590.417,2517.628,1602.362,2529.573,1617.08,2529.573z"/>
		<path d="M1315.896,2464.989c1.416,0,2.839-0.474,4.015-1.447c19.303-15.978,40.244-29.745,62.243-40.915
			c3.103-1.576,4.341-5.369,2.765-8.479c-1.582-3.097-5.363-4.335-8.479-2.765c-22.825,11.594-44.554,25.873-64.571,42.442
			c-2.685,2.223-3.054,6.194-0.837,8.879C1312.281,2464.213,1314.079,2464.989,1315.896,2464.989z"/>
	</g>
</g>
</svg>
